<svg width="72" height="72" viewBox="0 0 72 72" fill="none" xmlns="http://www.w3.org/2000/svg">
<path fill-rule="evenodd" clip-rule="evenodd" d="M45.3845 23.4996L45.3847 23.4995C46.5232 23.1823 47.7442 22.842 48.8379 22.3734C45.0334 20.6621 40.0887 18.9501 35.7133 17.9996C34.9533 18.1894 32.861 18.7603 31.5293 19.1407C31.9386 19.294 32.5955 19.4886 33.4665 19.7467C35.8347 20.4484 39.7863 21.6192 44.6531 23.7051C44.8915 23.6369 45.136 23.5688 45.3845 23.4996ZM27.3447 20.6624C31.9099 21.8035 38.3761 24.2762 40.278 25.2268C39.607 25.5146 38.7909 25.8507 37.976 26.1863L37.9758 26.1863C37.1744 26.5164 36.3742 26.8459 35.7143 27.1286C30.579 24.4661 24.4924 22.754 22.7803 22.3737C24.1112 21.9933 26.0138 21.2326 27.3447 20.6624ZM68.8076 33.0244C60.6293 36.2578 46.1747 44.8165 35.7134 53.7562C34.6195 52.7836 33.4476 51.8885 32.2475 50.9719C31.5703 50.4546 30.8841 49.9305 30.1978 49.3816C41.0393 40.8222 53.2118 33.2149 63.4825 29.7916C65.5749 31.1225 67.4767 32.2636 68.8076 33.0244ZM22.1948 43.6067C21.5438 43.1576 20.9109 42.7209 20.3079 42.3441C34.3822 31.3127 46.3641 26.368 53.5918 24.4661C54.2582 24.7992 54.8545 25.1089 55.4217 25.4035C56.4734 25.9497 57.4249 26.4439 58.5366 26.9381C46.7452 30.7426 36.0942 37.2088 25.2526 45.5776C24.2196 45.0038 23.1863 44.2908 22.1948 43.6067Z" fill="#E31837"/>
<path fill-rule="evenodd" clip-rule="evenodd" d="M3 33.2156C6.4233 30.9326 12.5092 27.3188 18.2154 24.6562C18.7488 24.8696 19.4622 25.0831 20.2881 25.3302C20.9341 25.5234 21.6489 25.7373 22.4002 25.9878C20.1173 26.9384 14.4118 29.9813 6.99348 34.9268C6.24189 34.5927 5.60028 34.332 5.02035 34.0963C4.27986 33.7954 3.63993 33.5353 3 33.2156ZM26.3946 27.5092C27.7255 28.0801 29.4375 28.8408 30.959 29.6015C25.4433 32.4547 20.4985 35.878 15.3632 39.4918C14.2885 38.9539 13.2137 38.3217 12.2056 37.7287C11.7866 37.4822 11.3791 37.2424 10.9878 37.0191C17.4556 32.4547 22.4003 29.4117 26.3946 27.5092Z" fill="#012169"/>
</svg>
