<svg width="72" height="72" viewBox="0 0 72 72" fill="none" xmlns="http://www.w3.org/2000/svg">
<path fill-rule="evenodd" clip-rule="evenodd" d="M15.2472 53.8307C15.3939 55.7729 16.2111 56.906 18.4845 56.861C34.3344 56.6045 38.4951 37.3877 28.7022 28.3472C27.1308 26.9027 25.2246 25.7111 22.9242 24.9056C21.7677 24.4961 19.8624 23.9057 18.2379 23.9057C16.842 23.9057 15.654 24.3476 15.3453 25.739C14.772 28.3958 15.0393 51.1955 15.2472 53.8307Z" fill="url(#paint0_linear_527_1870)"/>
<path fill-rule="evenodd" clip-rule="evenodd" d="M37.3608 6.00018C36.0855 6.00018 35.0127 6.41058 34.7274 7.67238C34.2045 10.0754 34.4565 30.7799 34.6365 33.1802C34.7742 34.9334 35.5104 35.9603 37.5741 35.9315C51.9687 35.6894 55.7559 18.2429 46.863 10.0367C45.4383 8.72448 43.6905 7.64358 41.6205 6.91458C40.5639 6.53748 38.8386 6.00018 37.3608 6.00018Z" fill="url(#paint1_linear_527_1870)"/>
<path fill-rule="evenodd" clip-rule="evenodd" d="M37.9716 26.307C37.302 29.3337 37.6251 55.3392 37.8555 58.3569C38.0328 60.5754 38.949 61.8507 41.5383 61.8129C59.6355 61.5231 64.392 39.5946 53.2185 29.2788C51.4329 27.6327 49.2306 26.2719 46.6287 25.3566C45.3021 24.8841 43.1259 24.2109 41.2809 24.2109C39.6807 24.2109 38.3181 24.7176 37.9716 26.307Z" fill="url(#paint2_linear_527_1870)"/>
<defs>
<linearGradient id="paint0_linear_527_1870" x1="15" y1="56.8623" x2="33.9591" y2="56.8623" gradientUnits="userSpaceOnUse">
<stop stop-color="#CB292B"/>
<stop offset="1" stop-color="#F47920"/>
</linearGradient>
<linearGradient id="paint1_linear_527_1870" x1="34.4107" y1="36.1961" x2="51.966" y2="36.2514" gradientUnits="userSpaceOnUse">
<stop stop-color="#1CB0E6"/>
<stop offset="1" stop-color="#0462B0"/>
</linearGradient>
<linearGradient id="paint2_linear_527_1870" x1="35.6635" y1="65.4818" x2="61.5893" y2="65.5636" gradientUnits="userSpaceOnUse">
<stop stop-color="#8BC53F"/>
<stop offset="1" stop-color="#009B56"/>
</linearGradient>
</defs>
</svg>
