<svg width="72" height="72" viewBox="0 0 72 72" fill="none" xmlns="http://www.w3.org/2000/svg">
<path fill-rule="evenodd" clip-rule="evenodd" d="M34.2258 3.48692C16.4331 4.29278 2.66362 19.3653 3.47023 37.1588C4.27233 54.9463 19.3486 68.7158 37.1399 67.9091C54.9259 67.1033 68.6961 52.0293 67.8887 34.2418C67.1099 16.9477 52.8455 3.45388 35.7106 3.45312C35.218 3.45312 34.723 3.46439 34.2258 3.48692Z" fill="white"/>
<path fill-rule="evenodd" clip-rule="evenodd" d="M34.2042 3.03374C16.7029 3.82232 3.04307 18.2377 2.99951 35.5723V35.7315C3.00026 36.2054 3.01153 36.6801 3.03331 37.1577C3.84968 55.1856 19.1257 69.1375 37.1581 68.3249C55.1859 67.5115 69.1446 52.2325 68.3252 34.2009C67.5336 16.6778 53.0747 2.99994 35.7093 2.99994C35.2099 2.99994 34.7082 3.0112 34.2042 3.03374ZM38.0943 64.4239C38.0627 63.6864 39.1449 63.4993 39.1449 63.4993C48.8108 61.5977 45.9854 55.256 42.5622 52.0228C41.1247 50.6597 27.6729 39.0547 27.6729 39.0547C14.8415 28.0062 15.8711 19.3843 15.8711 19.3843C16.487 8.76771 25.781 6.13534 32.8122 6.74518C33.6316 6.81728 34.0875 7.31822 33.9433 8.00091C33.7878 8.75119 32.6988 8.80752 32.6988 8.80752C30.4637 8.9367 28.4622 9.16802 26.9421 10.1902C21.2733 14.0002 22.9504 20.4846 30.5005 27.7005C31.4476 28.607 32.46 29.5624 33.4949 30.5304C33.4949 30.5304 35.0158 31.8718 38.0304 34.7415C43.8434 40.0971 47.0263 42.9848 47.0263 42.9848C57.2629 51.5113 53.7713 59.3048 49.8509 62.0145C46.8701 64.0806 43.564 65.0532 39.2276 65.2831C39.1908 65.2883 39.1502 65.2913 39.1081 65.2913C38.7101 65.2913 38.125 65.048 38.0943 64.4239ZM40.4877 32.9476C37.1696 32.2506 36.4937 29.2352 36.4937 29.2352C36.2241 28.1792 36.1573 26.8439 36.3796 25.1406C36.8339 21.5731 37.7923 19.8946 38.8873 17.1308C40.3645 13.4169 36.7739 11.2442 37.3709 9.87879C38.1753 8.02899 40.7363 10.3797 43.5962 10.5495C46.0619 10.6869 47.5377 10.5622 49.4506 10.8206C52.0003 11.1586 55.0405 12.0185 56.3946 13.6114C57.6376 15.0602 55.7397 16.8424 53.4528 15.7278C51.7893 14.916 49.6894 15.4124 50.9226 17.1511C52.4006 18.8056 53.1171 18.8552 54.6259 19.2487C58.7859 20.346 58.8753 24.3317 56.0552 26.394C52.8512 28.741 49.6053 27.7707 48.3015 23.1653C47.6548 20.8717 46.0289 19.7008 44.3698 20.3595C42.7168 21.0061 43.6931 24.029 44.9496 26.8281C47.1321 32.3993 42.7115 32.9716 41.03 32.9716C40.7754 32.9716 40.5839 32.9581 40.4877 32.9476ZM28.3091 63.384C24.7026 63.0295 20.3879 61.8924 16.6358 58.6412C13.1825 55.6529 11.0406 51.5492 10.0056 47.9487C8.93916 44.2567 8.4968 39.9367 10.2497 40.2799C10.7905 40.3866 11.7225 42.7561 12.7394 44.488C13.7871 46.2694 14.6365 47.2533 15.4431 47.8549C15.8051 48.1312 17.0376 45.3877 18.8265 43.8293C19.8675 42.9724 21.0075 42.6757 21.19 45.2405C21.4184 48.3889 20.8491 52.1373 21.7676 52.1373C22.629 52.1373 24.5599 51.4846 28.819 51.1264C30.4218 50.9882 31.3305 51.2908 29.8029 53.4441C29.0421 54.515 28.0237 56.0314 25.6129 57.7595C29.2269 61.1437 33.5671 60.7434 33.6444 62.1793C33.6925 63.0085 32.0703 63.4659 29.9373 63.4659C29.4191 63.4659 28.8709 63.4396 28.3091 63.384Z" fill="#0046FF"/>
</svg>
