<svg width="72" height="72" viewBox="0 0 72 72" fill="none" xmlns="http://www.w3.org/2000/svg">
<path fill-rule="evenodd" clip-rule="evenodd" d="M34.2258 3.48692C16.4331 4.29278 2.66362 19.3653 3.47023 37.1588C4.27233 54.9463 19.3486 68.7158 37.1399 67.9091C54.9259 67.1033 68.6961 52.0293 67.8887 34.2418C67.1099 16.9477 52.8455 3.45388 35.7106 3.45312C35.218 3.45312 34.723 3.46439 34.2258 3.48692Z" fill="white"/>
<path fill-rule="evenodd" clip-rule="evenodd" d="M34.2045 3.03374C16.7031 3.82232 3.04332 18.2377 2.99976 35.5723V35.7315C3.00051 36.2054 3.01177 36.6801 3.03355 37.1577C3.84993 55.1856 19.126 69.1375 37.1583 68.3249C55.1861 67.5115 69.1449 52.2325 68.3255 34.2009C67.5339 16.6778 53.075 2.99994 35.7096 2.99994C35.2101 2.99994 34.7084 3.0112 34.2045 3.03374ZM38.0945 64.4239C38.063 63.6864 39.1452 63.4993 39.1452 63.4993C48.811 61.5977 45.9856 55.256 42.5624 52.0228C41.1249 50.6597 27.6731 39.0547 27.6731 39.0547C14.8417 28.0062 15.8714 19.3843 15.8714 19.3843C16.4872 8.76771 25.7813 6.13534 32.8125 6.74518C33.6318 6.81728 34.0877 7.31822 33.9435 8.00091C33.7881 8.75119 32.6991 8.80752 32.6991 8.80752C30.464 8.9367 28.4625 9.16802 26.9424 10.1902C21.2736 14.0002 22.9506 20.4846 30.5008 27.7005C31.4478 28.607 32.4602 29.5624 33.4952 30.5304C33.4952 30.5304 35.016 31.8718 38.0307 34.7415C43.8437 40.0971 47.0266 42.9848 47.0266 42.9848C57.2631 51.5113 53.7716 59.3048 49.8512 62.0145C46.8703 64.0806 43.5643 65.0532 39.2278 65.2831C39.191 65.2883 39.1505 65.2913 39.1084 65.2913C38.7103 65.2913 38.1253 65.048 38.0945 64.4239ZM40.488 32.9476C37.1699 32.2506 36.494 29.2352 36.494 29.2352C36.2243 28.1792 36.1575 26.8439 36.3798 25.1406C36.8342 21.5731 37.7925 19.8946 38.8875 17.1308C40.3648 13.4169 36.7741 11.2442 37.3712 9.87879C38.1755 8.02899 40.7366 10.3797 43.5965 10.5495C46.0621 10.6869 47.5379 10.5622 49.4508 10.8206C52.0006 11.1586 55.0408 12.0185 56.3949 13.6114C57.6378 15.0602 55.74 16.8424 53.4531 15.7278C51.7895 14.916 49.6896 15.4124 50.9228 17.1511C52.4009 18.8056 53.1174 18.8552 54.6262 19.2487C58.7862 20.346 58.8755 24.3317 56.0554 26.394C52.8515 28.741 49.6055 27.7707 48.3017 23.1653C47.6551 20.8717 46.0291 19.7008 44.3701 20.3595C42.717 21.0061 43.6934 24.029 44.9499 26.8281C47.1324 32.3993 42.7118 32.9716 41.0302 32.9716C40.7756 32.9716 40.5841 32.9581 40.488 32.9476ZM28.3093 63.384C24.7029 63.0295 20.3882 61.8924 16.636 58.6412C13.1828 55.6529 11.0408 51.5492 10.0059 47.9487C8.93941 44.2567 8.49705 39.9367 10.25 40.2799C10.7907 40.3866 11.7227 42.7561 12.7396 44.488C13.7873 46.2694 14.6368 47.2533 15.4434 47.8549C15.8054 48.1312 17.0378 45.3877 18.8268 43.8293C19.8677 42.9724 21.0078 42.6757 21.1903 45.2405C21.4186 48.3889 20.8493 52.1373 21.7678 52.1373C22.6293 52.1373 24.5602 51.4846 28.8193 51.1264C30.422 50.9882 31.3307 51.2908 29.8031 53.4441C29.0423 54.515 28.0239 56.0314 25.6131 57.7595C29.2271 61.1437 33.5673 60.7434 33.6447 62.1793C33.6928 63.0085 32.0705 63.4659 29.9376 63.4659C29.4194 63.4659 28.8711 63.4396 28.3093 63.384Z" fill="#0046FF"/>
</svg>
