<svg width="72" height="72" viewBox="0 0 72 72" fill="none" xmlns="http://www.w3.org/2000/svg">
<path fill-rule="evenodd" clip-rule="evenodd" d="M3 68.5477H68.5463V3H3V68.5477Z" fill="url(#paint0_linear_507_180)"/>
<path fill-rule="evenodd" clip-rule="evenodd" d="M8.05514 4.16809C6.82075 4.20548 6.01768 5.26609 5.82314 6.74417C5.82314 6.74417 4.18652 15.3496 4.18652 33.6147C4.18652 51.8916 5.82314 63.845 5.82314 63.845C5.97337 65.2898 6.85122 66.4232 8.1216 66.4232H64.8527C66.1197 66.4232 67.1277 65.4207 67.154 63.845C67.154 63.845 66.5219 49.8459 66.5219 36.1693C66.5219 22.4838 67.154 6.74417 67.154 6.74417C67.1547 6.72271 67.1547 6.70194 67.1547 6.68117V6.67909C67.1512 5.33186 66.1363 4.20617 64.9171 4.16809H8.05514Z" fill="url(#paint1_linear_507_180)"/>
<path fill-rule="evenodd" clip-rule="evenodd" d="M53.8984 20.7118C49.8443 23.0858 48.6085 23.2734 44.2075 25.9208L44.4242 25.4265C46.7344 22.9085 47.7334 21.8514 49.2544 19.6221C45.194 19.8444 39.2983 20.3304 35.085 21.256L35.3051 20.8074C39.1294 18.9471 46.2256 17.0987 49.8443 16.6217C48.9609 15.3769 41.774 11.4931 39.9823 10.7426L40.1921 10.2864C45.6413 10.8998 52.862 13.4488 56.0107 15.3769C57.3392 14.9608 58.7017 14.9186 61.167 14.7081C61.167 14.7081 60.8 16.1931 58.1132 18.0381C58.7785 19.8222 57.1793 29.7111 55.8556 32.3329C55.7947 28.1922 55.4319 22.9757 53.8984 20.7118Z" fill="#009A7B"/>
<path fill-rule="evenodd" clip-rule="evenodd" d="M24.2854 56.1478L24.4917 55.677C22.3379 54.8511 20.1835 54.1865 18.4444 52.5561C18.9899 51.0247 19.6185 49.8305 20.6418 48.3212L20.8564 47.8546C19.0072 48.135 17.3319 48.8155 15.7264 49.1285C14.4678 46.9117 13.979 43.8815 13.3455 40.9932L13.1358 41.4445C12.7772 44.7496 12.6352 47.1042 13.1025 49.7301C11.7692 50.1046 10.604 50.1559 9.53162 50.619L9.32739 51.0635C11.0325 52.1116 12.4269 52.9168 14.3605 53.8285C15.392 56.0384 16.4609 57.5435 18.1938 59.2514L18.4035 58.7848C18.0948 57.5372 17.6919 56.4919 17.8442 55.1121C19.9889 55.7331 21.8332 56.0633 24.2854 56.1478Z" fill="#009A7B"/>
<path fill-rule="evenodd" clip-rule="evenodd" d="M30.2609 23.2296C30.2609 23.2296 29.3941 24.7596 28.7005 26.7977H28.5336C33.584 27.4803 38.3512 29.524 39.5448 30.2302L39.3329 30.685C34.097 29.7594 31.3368 29.866 29.3865 30.0377C27.4377 30.2302 27.0396 30.4697 27.0396 30.4697C25.9195 32.9281 25.2597 36.9393 24.9925 38.4195L24.7813 38.8785C23.8225 36.5717 22.4427 31.9776 22.4427 31.9776C19.8036 33.3912 13.7175 39.1035 13.7175 39.1035C17.0704 32.4123 20.4648 29.3627 20.4648 29.3627C19.292 28.183 16.2355 27.5856 13.9965 27.4921L14.2084 27.0352C15.6075 26.626 18.4979 26.4522 20.4315 26.3622C22.7245 26.2916 24.107 26.4246 24.107 26.4246C26.1479 24.7997 29.1913 23.3763 30.2609 23.2296Z" fill="#009A7B"/>
<path fill-rule="evenodd" clip-rule="evenodd" d="M36.6832 51.9872C35.6226 53.4134 34.7219 54.555 33.556 55.8669C31.8287 56.3432 29.7601 56.1307 28.1664 56.1812L27.9587 56.6333C29.1578 57.2557 30.332 57.6267 31.5885 57.8864C30.5694 58.8127 29.2084 59.5181 28.2571 60.1675L28.0453 60.6175C30.0938 60.1253 32.7883 59.264 34.7939 58.0823C35.8393 58.1238 36.8196 58.0497 37.5306 57.9099C37.5306 57.9099 37.7438 57.446 37.7438 57.4571C37.6171 57.0002 37.208 56.7136 37.0868 56.0635C38.9664 54.6041 40.3296 53.2749 41.9074 51.6874L42.1227 51.2354C40.5677 52.3105 38.6819 53.7789 36.8639 54.6353C36.787 53.7526 36.731 52.9862 36.6832 51.9872Z" fill="#009A7B"/>
<path fill-rule="evenodd" clip-rule="evenodd" d="M54.1074 20.2515C50.0615 22.633 48.8202 22.829 44.4261 25.4618C46.9877 22.6856 47.8752 21.4963 49.4634 19.1756C45.4078 19.3875 39.5128 19.8763 35.3057 20.8074C38.9687 18.8516 46.2324 16.6743 50.0615 16.1593C49.1733 14.9332 41.9802 11.0355 40.1913 10.2871C45.889 10.7336 52.8487 12.8563 56.2217 14.92C57.5516 14.5067 58.9314 14.4853 61.4043 14.2665C60.7708 15.3479 60.7438 15.973 58.3221 17.5778C58.9909 19.3736 57.3896 29.2556 56.0645 31.8698C56.0154 27.7381 55.654 22.5174 54.1074 20.2515Z" fill="white"/>
<path fill-rule="evenodd" clip-rule="evenodd" d="M24.4917 55.6762C22.1628 54.8233 20.4916 53.8194 18.6487 52.0935C19.2018 50.576 19.8249 49.3866 20.855 47.8552C18.9678 48.1363 17.5735 48.3558 15.948 48.6666C14.6201 46.3418 14.0199 44.1091 13.3449 40.9924C12.9835 44.2961 12.845 46.6548 13.3117 49.2772C11.8156 49.6919 10.7591 50.0526 9.53027 50.6175C11.2527 51.6629 12.645 52.4778 14.5668 53.3736C15.6004 55.5876 16.6728 57.0795 18.4029 58.7833C17.9993 57.335 17.8934 56.1816 18.0567 54.6461C20.207 55.2823 22.0472 55.6167 24.4917 55.6762Z" fill="white"/>
<path fill-rule="evenodd" clip-rule="evenodd" d="M30.5436 22.8317C29.8209 23.7732 28.979 25.5268 28.752 26.341C34.7376 27.1503 39.545 30.2297 39.545 30.2297C34.3084 29.302 31.5482 29.4204 29.5924 29.592C27.6505 29.7727 27.2552 30.0047 27.2552 30.0047C25.8408 33.1007 24.9941 38.419 24.9941 38.419C24.0373 36.1177 22.6631 31.5194 22.6631 31.5194C20.0206 32.9338 13.9373 38.644 13.9373 38.644C17.279 31.9521 20.672 28.9087 20.672 28.9087C19.5069 27.727 16.4434 27.1371 14.2079 27.0347C15.3655 26.5625 18.3493 26.01 20.6409 25.9048C22.9359 25.8349 24.3191 25.9644 24.3191 25.9644C26.3649 24.3499 29.4713 22.9888 30.5436 22.8317Z" fill="white"/>
<path fill-rule="evenodd" clip-rule="evenodd" d="M36.8947 51.5413C35.8403 52.9689 34.9306 54.0959 33.7557 55.4023C31.7384 55.9721 30.1287 56.1812 28.1667 56.1812C29.3721 56.798 30.5434 57.1698 31.7979 57.4343C30.5434 58.5814 29.4794 59.3831 28.2567 60.1675C30.3053 59.6794 32.9935 58.8119 34.9998 57.6239C36.0473 57.6627 37.0311 57.6011 37.7448 57.4578C37.5579 56.8479 37.443 56.402 37.2921 55.6169C39.1779 54.1437 40.5521 52.8311 42.1223 51.236C40.4511 52.3998 39.0069 53.2707 37.0781 54.1832C36.9867 53.2936 36.9424 52.5479 36.8947 51.5413Z" fill="white"/>
<defs>
<linearGradient id="paint0_linear_507_180" x1="3" y1="3" x2="3" y2="68.5477" gradientUnits="userSpaceOnUse">
<stop stop-color="#049C7D"/>
<stop offset="0.351536" stop-color="#61BAA8"/>
<stop offset="0.668127" stop-color="#61BAA8"/>
<stop offset="1" stop-color="#00A184"/>
</linearGradient>
<linearGradient id="paint1_linear_507_180" x1="4.23885" y1="4.27155" x2="4.23885" y2="66.4232" gradientUnits="userSpaceOnUse">
<stop offset="0.000554265" stop-color="#6ADBC4"/>
<stop offset="0.821791" stop-color="#026D58"/>
<stop offset="1" stop-color="#00A184"/>
</linearGradient>
</defs>
</svg>
