<svg width="72" height="72" viewBox="0 0 72 72" fill="none" xmlns="http://www.w3.org/2000/svg">
<path fill-rule="evenodd" clip-rule="evenodd" d="M13.8954 44.1099H7.45366V39.3815H13.8954C15.6313 39.3815 16.804 40.4375 16.804 41.7457C16.804 43.0521 15.6313 44.1099 13.8954 44.1099ZM18.3316 37.537C19.8605 36.9032 21.1263 35.4783 21.1263 33.1123C21.1263 29.589 18.1047 27.4517 14.4602 27.4517H3.19956C3.08926 27.4517 2.99976 27.5421 2.99976 27.6506V30.8556C2.99976 30.9632 3.08926 31.0554 3.19956 31.0554H13.6782C15.3698 31.0554 16.5135 32.087 16.5135 33.3582C16.5135 34.633 15.3698 35.6637 13.6782 35.6637H7.4534V33.2877C7.4534 33.1774 7.36299 33.0897 7.25269 33.0897H3.19956C3.08926 33.0897 2.99976 33.1774 2.99976 33.2877V47.4216C2.99976 47.5328 3.08926 47.6242 3.19956 47.6242H14.2957C18.4438 47.6242 21.4156 45.6885 21.4156 41.7456C21.4156 39.8063 20.2719 38.2015 18.3316 37.537ZM64.8842 31.0548H66.5812C66.6888 31.0548 66.7783 30.9626 66.7783 30.855V27.65C66.7783 27.5415 66.6888 27.452 66.5812 27.452H64.1953C61.4387 27.452 59.9785 28.3316 59.1431 30.2059L53.959 42.9032C53.6461 43.6626 53.1923 44.0216 52.299 44.0216V27.65C52.299 27.5415 52.2086 27.452 52.0983 27.452H48.2902C48.179 27.452 48.0895 27.5415 48.0895 27.65V47.2709C48.0895 47.4635 48.2477 47.6235 48.4439 47.6235H52.7158C55.4724 47.6235 56.7291 46.7429 57.5645 44.8714L62.68 32.3332C63.0905 31.4418 63.6836 31.0548 64.8842 31.0548ZM62.2935 39.0396L68.8266 47.39C68.9061 47.4948 68.8474 47.6241 68.7145 47.6241H64.1144C63.7726 47.6241 63.543 47.522 63.3432 47.2543L60.4871 43.4263C60.4699 43.4037 60.4699 43.3739 60.4807 43.3486L62.2383 39.0486C62.2492 39.0188 62.2763 39.0134 62.2935 39.0396ZM28.5661 33.0896H24.7553C24.6423 33.0896 24.5546 33.1782 24.5546 33.2885V47.4224C24.5546 47.5336 24.6423 47.6241 24.7553 47.6241H28.5661C28.6773 47.6241 28.7686 47.5336 28.7686 47.4224V33.2885C28.7686 33.1782 28.6773 33.0896 28.5661 33.0896ZM40.4414 27.4517H44.2513C44.3607 27.4517 44.452 27.5421 44.452 27.6506V47.2707C44.452 47.4641 44.292 47.6242 44.0976 47.6242H39.8257C37.0681 47.6242 35.8105 46.7427 34.976 44.8721L29.8615 32.333C29.4501 31.4415 28.8606 31.0546 27.6573 31.0546H24.7551C24.6421 31.0546 24.5535 30.9632 24.5535 30.8556V27.6506C24.5535 27.5421 24.6421 27.4517 24.7551 27.4517H28.3426C31.0992 27.4517 32.563 28.3323 33.3966 30.2056L38.5798 42.9038C38.8935 43.6633 39.3456 44.0213 40.2407 44.0213V27.6506C40.2407 27.5421 40.3302 27.4517 40.4414 27.4517Z" fill="#D61920"/>
</svg>
