<svg width="72" height="72" viewBox="0 0 72 72" fill="none" xmlns="http://www.w3.org/2000/svg">
<path fill-rule="evenodd" clip-rule="evenodd" d="M44.5711 37.2385L44.6405 37.1705L46.028 36.5227L46.0675 36.491L46.1169 36.5018L46.1849 36.428L46.2325 36.4135L46.2261 36.3749L46.9895 35.9135L47.0801 35.87V35.8432L47.1291 35.8532L47.1504 35.8169L47.2202 35.8119L47.217 35.787L47.3168 35.7793L49.8022 34.3845L49.8493 34.3958L49.9196 34.3183L49.9667 34.3274L50.0125 34.2712L50.0592 34.2839L50.1014 34.2236L50.1526 34.2345L50.1712 34.1932L50.2396 34.1873V34.1665L50.2926 34.1746L50.3135 34.1365L50.406 34.1302L50.4268 34.0948L50.5216 34.0926V34.064L50.5628 34.0781V34.055L50.7029 34.0377V34.0169L50.775 34.0282V34.0042H50.8697V33.987L50.9377 33.9924V33.9715L50.9794 33.9829V33.9602L51.1176 33.9638V33.9412L51.1666 33.9552V33.9303L51.2613 33.9493V33.9244L51.3556 33.9453V33.9226L51.4245 33.9335V33.9144L51.5342 33.9335V33.9144L51.6589 33.9335V33.9144L52.6788 34.064V34.0831L53.0541 34.1724V34.1932L53.1638 34.2154V34.2403L53.2812 34.2594V34.2821L53.376 34.2975V34.3183L53.4458 34.3292V34.3519L53.6085 34.4049V34.4294L53.6579 34.4335V34.4561L53.7277 34.4656V34.4883L53.7731 34.5014V34.52L53.8451 34.5323V34.5545L53.89 34.5663V34.583L54.0101 34.6315V34.6492L54.1502 34.7172V34.7399L54.1892 34.7453V34.7721L54.3315 34.8382V34.8573L54.4059 34.8949L54.4281 34.9384L54.5192 34.9788L54.57 35.0527L54.6117 35.0599L54.6438 35.1084L54.6874 35.1207L54.7291 35.1927L55.0582 35.5064L55.1085 35.5164V35.5576L55.157 35.5676L55.1756 35.6374L55.3387 35.7983V35.8364L55.4367 35.9189V35.962L55.5314 36.0445V36.0853L55.5808 36.1161L55.6048 36.1818L55.6257 36.1918V36.2317L55.6737 36.2616L55.6946 36.3545L55.7435 36.3831V36.4243L55.7893 36.4796V36.5191L55.8365 36.5553V36.5916L55.8668 36.627L55.7834 36.5875V36.5476L55.3156 36.2865V36.2389L54.982 36.0952V36.0726L54.8864 36.0576V36.0327L54.8125 36.0177V36.001L54.7422 35.9878V35.962L54.6479 35.942L54.6243 35.8981L54.5301 35.8795V35.8586L54.3882 35.8323V35.8119L54.2671 35.787V35.7639L54.1026 35.738V35.7113L53.9208 35.6791V35.6524L53.8664 35.6487V35.6261L53.7957 35.6147L53.7527 35.5409L53.6824 35.5295L53.6747 35.5046L53.58 35.4688V35.4221L53.3474 35.3115V35.2702L53.0614 35.1528V35.1084L52.9417 35.0862V35.045L52.4182 34.8822V34.8401L51.7881 34.6946L51.7346 34.7131L51.3597 34.6415L51.3352 34.6796L51.1176 34.6415L51.0968 34.6796L50.8434 34.6528L50.8144 34.6905L50.726 34.6737V34.6946L50.6802 34.6905V34.7131L50.6045 34.6946L50.3946 34.7231V34.7703L50.158 34.7888V34.8292L49.9481 34.8573L49.8307 34.9198V34.9634L49.7627 34.9747L49.736 35.0105L49.6925 35.0055L49.6431 35.0599L49.5959 35.0545V35.0962L49.5465 35.0862L49.556 35.1297L49.4876 35.1846L49.4087 35.1678V35.2113L49.3652 35.2036L49.2496 35.3532L49.2038 35.3459V35.3931L49.1567 35.3836L49.0864 35.5254L49.0393 35.5146L48.8521 35.8038L48.8049 35.7983V35.8586L48.7573 35.8514L48.6948 36.0821L48.6454 36.0708L48.6227 36.2203L48.5756 36.2294V36.3169L48.5302 36.3282V36.442L48.5053 36.4361V36.5191H48.484L48.4645 36.7294L48.4187 36.7176V36.966L48.3698 36.9719L48.3788 37.6528L48.4296 37.6795V37.9143L48.4772 37.9501L48.484 38.102L48.5053 38.1038V38.1491L48.5302 38.1528L48.5529 38.3744L48.6 38.3776V38.4918L48.6517 38.5217V38.5884L48.6775 38.592V38.6808L48.7007 38.6849L48.7215 38.7751L48.7705 38.7833L48.8008 38.9397L48.8444 38.9723V39.0367L48.8711 39.0421L48.8997 39.5648L48.9219 39.5689L48.926 39.7429L48.9468 39.7465L48.9504 39.8585L48.9713 39.8617L48.9754 39.994L48.9998 39.9959V40.0815L49.0225 40.087V40.1305L49.0452 40.1359L49.0755 40.2728L49.0941 40.2769L49.0982 40.3635L49.1209 40.3676V40.4315L49.1472 40.4351V40.5022L49.1698 40.5049V40.5697L49.1929 40.5738L49.2174 40.708L49.2383 40.7157V40.7551L49.2872 40.7914L49.4876 41.2379L49.5316 41.2474L49.7038 41.601L49.7414 41.6128L49.7963 41.664V41.7052L49.8493 41.7356V41.7814L49.8869 41.8136V41.8548L50.0315 41.9895V42.0339L50.0592 42.0402L50.1789 42.2125L50.2224 42.2184L50.2999 42.343L50.3398 42.3494L50.3946 42.4251L50.508 42.557L50.5574 42.5665L50.6272 42.6653L50.6802 42.6744L50.7029 42.722L50.775 42.7537V42.8013L51.08 43.0076L51.1784 43.1571L51.201 43.1612L51.2255 43.2746L51.2958 43.3317L51.318 43.4201L51.3488 43.4264L51.4091 43.5207L51.3221 43.6005L51.2536 43.6304V43.6771L51.1893 43.7038V43.7482L50.7523 44.0297V44.0733L50.6653 44.0996V44.1163L50.6163 44.1113L50.595 44.149L50.5687 44.1408L50.5442 44.1852L50.4971 44.1734L50.4531 44.2306L50.406 44.2228L50.3869 44.2573L50.3135 44.2664V44.2908L50.2718 44.28L50.2469 44.3212L50.1789 44.3271V44.348H50.0823L50.0655 44.4273L49.9667 44.4296L49.7854 44.5483V44.5878L49.7151 44.5859V44.6263L49.6258 44.6734V44.7151L49.5089 44.7831V44.8212L49.4123 44.8529V44.8928L49.3915 44.8869L49.3022 44.9803L49.255 44.9694V45.0102L49.2097 45.0234V45.0478L49.1698 45.037L49.0755 45.1276L49.0284 45.1236L48.935 45.2129L48.8629 45.2183L48.8407 45.2604L48.7913 45.2487L48.7705 45.2867L48.7215 45.2813L48.7066 45.3189L48.6517 45.3053L48.6345 45.3774L48.5873 45.3738L48.5642 45.4114L48.4772 45.4585L48.4074 45.561L48.3371 45.5891V45.6326L48.2954 45.6444V45.6897L48.2424 45.7047L48.2465 45.7486L48.1975 45.7577V45.7804L48.1481 45.7922V45.8334L48.0379 45.8978V45.9418L47.8811 46.0379L47.8548 46.1004L47.7859 46.129V46.1534L47.7388 46.1417L47.5801 46.2826L47.533 46.2786L47.4423 46.3692L47.3947 46.3583L47.3231 46.4281L47.2737 46.4241L47.2524 46.4603L47.1821 46.4676V46.4866L47.1354 46.483L47.1182 46.5188L47.0634 46.5097L47.0484 46.5487L46.9949 46.5396L46.9763 46.5809L46.9419 46.5736V46.5356L47.1123 46.483L47.1064 46.4164L47.1753 46.3692L47.2701 46.3203V46.2971L47.3168 46.303L47.3113 46.2405L47.3399 46.2423L47.3888 46.2328L47.5683 45.915L47.6214 45.9245L47.7333 45.5782L47.7827 45.5873L47.8036 45.4168L47.843 45.4078V45.2754L47.8675 45.2813V45.1258L47.8924 45.1299L47.8843 44.7831L47.9092 44.7872L47.8299 44.0171L47.7859 44.0053L47.756 43.7836L47.7125 43.7723L47.6785 43.6154L47.635 43.6095L47.5878 43.4264L47.5389 43.4201L47.4913 43.2351L47.4423 43.2066L47.4174 43.0039L47.3684 42.9736V42.8412L47.3458 42.8394V42.7977L47.3231 42.79L47.2964 42.5665L47.2469 42.5593L47.2202 42.4477L47.1998 42.4459V42.353L47.1504 42.3263L47.1291 42.1875L47.077 42.1599V42.0951L47.0294 42.0647V42.0176L46.9818 41.9895L46.955 41.8739L46.9346 41.8698L46.9065 41.8041L46.8589 41.7927V41.7302L46.8131 41.717L46.7433 41.5557L46.698 41.552V41.5013L46.649 41.4954L46.5711 41.3272L46.5257 41.3213V41.2723L46.4804 41.266L46.4083 41.1468L46.3612 41.1395L46.3571 41.0919L46.31 41.0829L46.2379 40.9618L46.1889 40.9541V40.9106L46.028 40.8159V40.7701L45.9804 40.761V40.7175L45.8349 40.6055L45.7855 40.5947L45.7402 40.4768L45.6926 40.4714L45.6418 40.3521L45.6228 40.3467L45.5679 40.2085L45.5244 40.1989V40.1359L45.4773 40.1305V40.0815L45.4297 40.0756L45.2615 39.8032L45.2144 39.7919V39.7538L45.1686 39.7429V39.7008L45.1196 39.6881L45.0004 39.5648L44.9963 39.5158L44.9492 39.5099V39.4646L44.902 39.4546V39.4134L44.7842 39.3472V39.3037L44.6935 39.2674V39.2239L44.5453 39.1564L44.4515 39.0485L44.3549 38.8531L44.3037 38.8454L44.1863 38.5843L44.1428 38.5766V38.5371L44.0938 38.5217L44.0408 38.4066L43.9932 38.3989L43.878 38.2058L43.8304 38.1945L43.8268 38.1528L43.781 38.1414V38.102L43.7339 38.0902V38.0467L43.6831 38.0372V37.9955L43.4955 37.85V37.8082L43.3971 37.7475V37.6981V37.6963L43.5068 37.6627L43.5335 37.6265L43.5766 37.6306L43.6015 37.5957L43.6469 37.6038L43.6713 37.5639L43.7189 37.5753L43.7434 37.5358L43.7887 37.5453L43.806 37.5073L43.9007 37.5014L43.9252 37.4656L44.0634 37.4483L44.0594 37.4243L44.1106 37.4334V37.4084L44.2466 37.3939V37.3731L44.315 37.3862V37.3618L44.3644 37.3731V37.3504L44.4098 37.3595L44.4365 37.3219L44.48 37.3296L44.5272 37.2933L44.5231 37.2552L44.5711 37.2385ZM53.9801 45.9283L53.9271 45.917L53.84 45.7941L53.7929 45.79L53.5744 45.5344L53.4407 45.4002V45.3621L53.3477 45.281L53.3441 45.2357L53.3174 45.228L53.2707 45.1581L53.2249 45.1464L53.2 45.101L53.083 45.0575V45.0367L52.9919 45.0027V44.98L52.8954 44.9365L52.8727 44.893L52.7385 44.8213V44.8019L52.6628 44.7738L52.6383 44.7207L52.5509 44.6826L52.5209 44.6373L52.4788 44.6264L52.4525 44.5802L52.3827 44.5444L52.3392 44.4746L52.2839 44.4614L52.2694 44.4138L52.2141 44.407L52.1211 44.2815L52.0799 44.2756L51.8886 44.0467L51.8473 44.0412V44.0186L51.7771 43.9619V43.9202L51.5899 43.7325L51.584 43.6926L51.5346 43.6568L51.4589 43.5567H51.4666L51.4589 43.5131L51.584 43.3844L51.6288 43.3939L51.6764 43.3386L51.7236 43.3468L51.7503 43.3051L51.8183 43.2992V43.2747L51.8641 43.286L51.8886 43.2461L51.9285 43.2502L51.9588 43.2158L51.9983 43.2235L52.0232 43.1836L52.1007 43.1763L52.1628 43.1006L52.2104 43.112L52.2367 43.0698L52.2839 43.0839L52.4189 42.9565L52.4965 42.9452L52.4906 42.9035L52.6324 42.7978L52.7245 42.7498L52.7494 42.6881L52.8178 42.6614V42.6138L52.8904 42.5834V42.5399L52.9393 42.5272V42.4832L52.9847 42.4701V42.4284L53.03 42.4134L53.0545 42.3527L53.0735 42.3568L53.1003 42.2752L53.1433 42.2616L53.1719 42.1791L53.2417 42.175L53.306 42.0993L53.3536 42.1106L53.4012 42.0476L53.4461 42.0594L53.471 42.0177L53.5146 42.029L53.6093 41.9343L53.6642 41.9456L53.8228 41.8038L53.8668 41.8115L53.8908 41.772L53.9633 41.7417V41.6995L53.986 41.7036L54.0807 41.6125L54.1256 41.6224V41.5762L54.1732 41.52L54.2598 41.4728V41.4307L54.3319 41.3949V41.3568L54.4062 41.3273V41.2816L54.4552 41.2702L54.4497 41.2018L54.5005 41.2154L54.4973 41.1469L54.7049 41.0128V40.9692L54.8926 40.9176V40.8745L55.0345 40.8332V40.7915L55.2462 40.7004V40.6587L55.2919 40.6628L55.4624 40.4584L55.5032 40.4674V40.4226L55.5512 40.4275L55.5453 40.3877L55.5966 40.3958L55.6895 40.2838V40.2177L55.7616 40.1855L55.8028 40.064L55.8558 40.0758L55.8971 39.9303L55.9447 39.9393V39.8546L55.9887 39.86V39.7766L56.0376 39.7802L56.0585 39.6764L56.0793 39.6841L56.1074 39.5345L56.1301 39.54V39.4969L56.1491 39.4987V39.4135L56.1718 39.4153V39.3759L56.1945 39.3791V39.2698L56.2416 39.2558V39.1007L56.2874 39.0912L56.2838 38.8963L56.3291 38.8854V38.5106L56.3536 38.516V38.4249L56.3762 38.4389L56.3232 38.1411L56.3173 37.7681L56.2724 37.7477V37.5491L56.2248 37.5187L56.2189 37.3619L56.1718 37.3329V37.2236L56.1491 37.2196V37.1779H56.1242V37.0849L56.102 37.0813V37.0151L56.0712 37.0079V36.9716L56.0544 36.9662V36.8751L56.0263 36.8728L56.0036 36.7617L55.956 36.7499V36.7354L55.9601 36.7391L56.0036 36.7499L56.0317 36.7971L56.0712 36.8053L56.1242 36.881L56.1718 36.8868L56.1886 36.9358L56.2362 36.9394L56.3291 37.0663L56.3762 37.0781L56.5693 37.3061L56.7112 37.4145L56.7815 37.5355L56.8286 37.5455L56.8513 37.6112L56.9673 37.7214V37.7649L57.0865 37.8728V37.9108L57.1337 37.9444V37.9897L57.2035 38.0391V38.084L57.2488 38.113L57.257 38.1579L57.3 38.1846L57.3209 38.2531L57.3436 38.2626L58.7801 39.8546L58.8272 39.8786V39.9257L58.8748 39.9566L58.8979 40.0209L58.9201 40.0268L59.2474 40.4067L59.295 40.4207L59.3403 40.4883L59.3897 40.4996L59.4654 40.5944L59.5071 40.6057L59.5824 40.7041L59.6205 40.7136L59.7701 40.8899L60.0697 41.2018L60.1622 41.3273L60.567 41.7435L60.5914 41.7888L60.6839 41.8264L60.707 41.874L60.7959 41.9157L60.8249 41.961L61.7383 42.8599L61.7859 42.8658L61.8557 42.9891L61.8783 42.9927V43.0322L61.9259 43.0662V43.0839L61.9735 43.1156V43.1573L62.0166 43.1913L62.0261 43.2312L62.0923 43.286L62.4708 43.6795L62.5125 43.6872L62.537 43.7325L62.5832 43.7443L62.6281 43.8141L62.6757 43.825L62.721 43.8953L62.7704 43.9066L62.8402 44.0054L62.8874 44.009L63.0746 44.2393L63.124 44.2475V44.2665L63.1924 44.3273V44.3685L63.4041 44.5802L63.7146 44.8703V44.893L63.7595 44.8984V44.9229L63.7999 44.9478L63.8946 44.9918L64.0156 45.0743L64.0365 45.1237L64.1122 45.1808L64.1575 45.1917L64.231 45.2393L64.2459 45.2923L64.3166 45.3431L64.366 45.3526L64.4114 45.4079L64.4358 45.4573L64.8107 45.8227L65.3538 46.3712L65.4009 46.4242L65.4408 46.4283L65.473 46.4732L66.6652 47.5792V47.5978L66.7372 47.6508L67.4417 48.4228L67.487 48.4323L67.5817 48.5597L67.6266 48.5647L67.6497 48.6159L67.7934 48.7469L67.8863 48.8525L68.0051 48.9985L68.1021 49.1249L68.1683 49.2238L68.2136 49.2954L68.2911 49.4355L68.3786 49.5588L68.4253 49.6553L68.452 49.7024L68.5241 49.8448V49.8915V49.9105L68.5486 49.9123L68.5713 49.9998L68.5939 50.0052V50.056V50.0701L68.6184 50.0751V50.1208L68.6415 50.1245V50.1888L68.6646 50.1906L68.6737 50.2591L68.6891 50.2609L68.6964 50.3271L68.7118 50.3307L68.8645 50.9749V51.2337L68.8895 51.2378L68.8686 51.7903L68.8519 51.7863V51.934L68.831 51.9304V52.0365H68.8083V52.1421L68.782 52.1385L68.787 52.2237L68.7662 52.2182V52.303L68.7413 52.3012V52.3678L68.7172 52.3597L68.6964 52.5056L68.6737 52.502V52.5455L68.647 52.5414V52.6022H68.6225L68.6302 52.6421L68.6075 52.6398V52.7042L68.5831 52.6987L68.5413 52.818L68.5132 52.8139V52.8578L68.4901 52.8483V52.8955L68.4675 52.8896V52.9372L68.4407 52.9295L68.4026 53.0491L68.3786 53.0469L68.3537 53.1053L68.3061 53.1167L68.2839 53.2005L68.2363 53.2114V53.2509L68.1683 53.2817V53.3288L68.1021 53.3574V53.4027L68.0151 53.448V53.4934L67.8052 53.6185L67.6212 53.7835L67.5772 53.7758L67.506 53.8456L67.4566 53.8379L67.4172 53.8968L67.3619 53.8873L67.3188 53.9362L67.2762 53.9308L67.2517 53.9684L67.1842 53.9784V54.0006L67.0894 54.0042L67.0645 54.0405L66.9249 54.0591L66.9022 54.0958L66.6978 54.1221V54.1429L66.6031 54.147V54.1715L66.531 54.1579V54.1806L66.4929 54.1715V54.1905L66.4158 54.1806V54.2001L66.3451 54.1905V54.2073L66.2794 54.196V54.2146L66.2109 54.2032V54.2259L66.1162 54.2073V54.2295L66.0215 54.2109V54.2354L65.91 54.2109V54.2354C65.91 54.2354 65.2137 54.1448 64.9372 54.0772C64.6575 54.0042 63.9495 53.7395 63.9495 53.7395L63.8488 53.7078L63.8148 53.696V53.6715L63.6961 53.6298V53.609L63.6086 53.575V53.55L63.5329 53.5392V53.516L63.4377 53.4802V53.4539L63.3434 53.4163L63.3203 53.3687L63.1788 53.3007V53.2817L62.5052 52.856V52.8325L62.4128 52.818V52.7948L62.3421 52.7803V52.7559L62.2723 52.7481V52.725L62.2002 52.6928L61.1272 51.9544L61.0778 51.9513L60.9831 51.8202L60.9341 51.8144L60.2791 51.3135V51.2885L60.1939 51.2486V51.2296L60.1164 51.2187V51.192L59.9817 51.1222V51.1049L59.9328 51.0972V51.0732L59.8385 51.0351L59.8095 50.9857L59.6753 50.9177L59.6449 50.872L59.6051 50.8665V50.838L59.5352 50.8112L59.5103 50.7582L59.4654 50.755L59.412 50.6788L59.3725 50.6698L59.3462 50.6281L59.3027 50.6167L59.2003 50.4889L59.1549 50.4844L58.3861 49.8502V49.8276L58.2443 49.7568V49.7342L58.1994 49.7274V49.7065L58.1518 49.6929V49.6743L58.0122 49.6095L57.9913 49.5588L57.8948 49.5248L57.8698 49.4713L57.7787 49.4355L57.7352 49.3561L57.684 49.3525L57.6613 49.3094L57.6124 49.2972L57.563 49.2238C57.563 49.2238 56.7701 48.595 56.4633 48.3135C56.3057 48.1628 55.9527 47.8423 55.6435 47.5615C55.3808 47.323 55.1497 47.1131 55.0966 47.0602L55.0118 46.9786V46.9314L54.8926 46.8254L54.8695 46.7592L54.8241 46.6853L53.9801 45.9283ZM37.1268 40.8592V40.8991L37.3162 41.026V41.0654L37.5094 41.1869V41.2309L37.5773 41.2472V41.2658L37.6023 41.3157L37.6716 41.3914L37.7197 41.4009V41.4671L37.7705 41.4743L37.8199 41.594L37.8443 41.5976V41.6411L37.8901 41.6733V41.7341L37.935 41.7454V41.7871L37.9826 41.7957L38.0356 41.9158L38.0805 41.9249V41.9648L38.1304 41.9779L38.2437 42.1747L38.2945 42.1787V42.2223L38.4821 42.366L38.4876 42.4113L38.5347 42.4208V42.4643L38.6562 42.5287V42.5704L38.7038 42.5817V42.6252L38.8665 42.7218L38.8915 42.7694L38.9613 42.7866L38.9857 42.8297L39.0311 42.8392V42.86L39.1086 42.8977V42.9398L39.1938 42.9584V43.0019L39.3185 43.0681L39.6521 43.4752V43.5187L39.7015 43.5287L39.9562 43.8142V43.8573L40.0093 43.8632V43.909L40.0854 43.9203V43.9675L40.1267 43.9765V44.0187L40.4358 44.2304L40.5319 44.3115V44.3328L40.5813 44.3423L40.585 44.3609L40.6303 44.3722L40.6493 44.4139L40.7269 44.4294L40.7477 44.4801L40.818 44.4915V44.5159L40.9109 44.5554V44.5957L41.0297 44.6655V44.7072L41.0831 44.7149V44.7566L41.1221 44.7662L41.2019 44.8459V44.8872L41.2454 44.8967V44.9425L41.2926 44.9479L41.4177 45.0785V45.1234L41.463 45.1297L41.8383 45.466V45.5078L41.914 45.5191V45.5667L42.031 45.6274V45.646L42.1012 45.6669V45.6877L42.1955 45.7235V45.7693L42.298 45.7861V45.8296L42.4612 45.8826L42.4816 45.9284L42.5759 45.9488V45.9873L42.6933 46.0114L42.7182 46.0626L42.8428 46.0798V46.102L42.9113 46.1179V46.1401L43.0038 46.1573V46.1759L43.1688 46.2126L43.1937 46.2557L43.4566 46.3087L43.4793 46.3581L43.7114 46.3958V46.4166L43.7816 46.4279V46.4524L43.9013 46.4733V46.4964L43.9543 46.5077L43.9765 46.5549L44.166 46.6074V46.6514L45.0141 46.8994L45.321 46.9538V46.9316L45.3645 46.9429V46.9202L45.8187 46.9578V46.9161L46.2389 46.8858V46.8445L46.3047 46.8463L46.2861 46.8572V46.9003L46.1687 46.9678L46.0341 47.0675V47.1074L45.962 47.1188L45.8074 47.2629L45.758 47.2529L45.6877 47.325L45.6424 47.3119L45.5685 47.3876L45.525 47.3781L45.4779 47.4311L45.4303 47.427L45.408 47.4628L45.3437 47.4746V47.4955L45.2947 47.4859L45.2721 47.5236L45.2009 47.5353V47.5544L45.0672 47.5693L45.0386 47.611H44.9439V47.6319L44.9026 47.6242V47.6505L44.8568 47.6373V47.6618L44.7168 47.679V47.6999L44.6529 47.6845V47.7035L44.6411 47.7638L44.5921 47.7529L44.4806 47.8626L44.37 47.8477V47.8912L44.2363 47.9723L44.0314 48.1482L43.9765 48.141L43.7934 48.2561L43.5187 48.3853L43.4507 48.3925V48.4152L43.4036 48.4043L43.3786 48.4451L43.2862 48.4492L43.2694 48.4855L43.2145 48.4814L43.1724 48.5136L43.1266 48.5022V48.5249L43.0795 48.5158V48.5399L43.0341 48.529V48.5516L42.9888 48.5417V48.5648L42.9417 48.5557V48.5761L42.8923 48.5707V48.5856L42.7522 48.6065V48.6273L42.6824 48.6156V48.6346L42.6425 48.6273V48.65L42.5727 48.6346V48.6536L42.506 48.6786V48.7012L42.4362 48.6894V48.7067L42.3682 48.6971V48.7162L42.0446 48.849L41.9517 48.9356L41.9041 48.932L41.8111 49.0249L41.7626 49.0113L41.7209 49.0648L41.6774 49.0589L41.6262 49.1119L41.5809 49.106L41.5577 49.1405L41.463 49.1473L41.4385 49.1876L41.3701 49.1971V49.218L41.2758 49.2193L41.259 49.2615L41.1153 49.2742V49.2969L41.0718 49.2882V49.3109L41.0242 49.3009V49.3236L40.9766 49.3177V49.339L40.837 49.3522V49.3766L40.7726 49.3558V49.3807L40.7269 49.3766V49.3957L40.6493 49.3807L40.6534 49.4056L40.6072 49.3957V49.4202L40.5374 49.4056L40.5433 49.4242L40.4735 49.4111V49.4338L40.0265 49.6096L39.983 49.6042L39.8941 49.6908L39.847 49.6799L39.7994 49.7402L39.7523 49.7288L39.7042 49.7832L39.6575 49.7742L39.6403 49.8159L39.595 49.8059L39.5437 49.863L39.4531 49.8648L39.4304 49.9065L39.3393 49.9106L39.3185 49.9469L39.1784 49.9637L39.1562 49.9999L39.0859 49.9904L39.0578 50.0294L38.2985 50.164L38.2061 50.1486V50.1681L38.1095 50.1527V50.1753L38.0166 50.1586V50.1753L37.9255 50.1586V50.1808L37.8122 50.1586V50.1808L37.6966 50.1586V50.1808L37.5094 50.1486V50.1681L36.6463 50.0294V50.0108L36.3716 49.9555V49.9351L36.1826 49.897L36.1767 49.8821L36.0438 49.8558V49.8308L35.9496 49.8159V49.795L35.8326 49.7724V49.7497L35.5729 49.6599V49.6396L35.5031 49.6269V49.6042L35.3403 49.5552V49.5344L35.2909 49.5244V49.5017L35.2229 49.4886V49.4655L35.1771 49.4605V49.4378L35.1114 49.4242V49.4056L35.0185 49.3653V49.3426L34.9482 49.3313V49.3109L34.8045 49.2425V49.218L34.761 49.2067V49.1876L34.6663 49.1514L34.6436 49.1038L34.5017 49.0339L34.4773 48.985L34.3839 48.9514V48.9247L34.3141 48.8925L34.2914 48.8467L34.2443 48.8377L34.2198 48.786L34.174 48.7806L34.1269 48.7067L34.0815 48.7012L34.0339 48.6273L33.9868 48.6196L33.9396 48.5439L33.8689 48.5104L33.6609 48.2561L33.6101 48.2506L33.4397 48.0272L33.4002 48.0158L33.2828 47.8663V47.8227L33.2352 47.7946V47.7738L33.1894 47.7416V47.6999L33.1196 47.645V47.6015L33.0521 47.5485V47.4991L33.0004 47.4746L32.9782 47.4043L32.9496 47.3989V47.3572L32.9043 47.325L32.8835 47.2629L32.8567 47.2548L32.8286 47.1623L32.7851 47.1301V47.0907L32.7357 47.0376V46.9996L32.7153 46.9941V46.9488L32.6904 46.9447V46.903L32.6677 46.8994L32.6205 46.7593H32.5974L32.5748 46.6455L32.5516 46.6396V46.5943H32.5254V46.5304L32.4995 46.5249L32.4782 46.4338H32.4519L32.4043 46.2126L32.3817 46.2085V46.1401H32.3572V46.0757L32.3323 46.0662L32.3055 45.913L32.2851 45.9094L32.2815 45.8242L32.2588 45.8169L32.2339 45.5567L32.2815 43.7494H32.3055V43.6909L32.3268 43.6928V43.6302L32.3517 43.6338L32.4157 43.365L32.4465 43.3709V43.3274L32.4633 43.3369V43.2707L32.4859 43.2744L32.5104 43.1914L32.5254 43.1968V43.1347L32.5557 43.1384L32.5807 43.0532L32.6033 43.0604V42.9942L32.6464 42.9793V42.9416L32.6904 42.909V42.8641L32.7153 42.8659V42.8238L32.7321 42.8279V42.7866L32.781 42.773L32.8019 42.6914L32.8508 42.6801V42.6348L32.8943 42.6198L32.9193 42.5441L32.9614 42.5287V42.4834L33.029 42.4584V42.4113L33.0992 42.3805V42.3374L33.2126 42.2753V42.235L33.3037 42.186V42.1407L33.3549 42.1107L33.4229 42.1008V42.0591L33.4718 42.0441L33.5117 41.9893L33.6269 41.9453V41.9063L33.6763 41.8687L33.7198 41.8796L33.7901 41.8039L33.8413 41.8134L33.9247 41.7227L33.9755 41.7318L34.0208 41.6751L34.0702 41.6865L34.1137 41.6316L34.1627 41.6375L34.184 41.6012L34.2746 41.5976L34.2973 41.5555L34.3671 41.5518V41.5278L34.4618 41.5242L34.4863 41.4838L34.5248 41.4952L34.5715 41.4589L34.6264 41.4671V41.4444L34.6663 41.4553V41.4362L34.718 41.4421L34.7365 41.4041L34.8045 41.4177V41.3932L34.8988 41.3873V41.3687L34.9709 41.38V41.3624L35.0584 41.3569V41.3342L35.1305 41.3497V41.327L35.1771 41.3342V41.3157L35.4799 41.3075V41.2839L35.5502 41.2966V41.2721L35.6205 41.2889V41.2658L35.8965 41.2721L35.9233 41.2377L35.9668 41.2472L36.0085 41.1887L36.0579 41.2019L36.101 41.1393L36.1486 41.1511L36.1952 41.0922L36.241 41.1058L36.266 41.0654L36.3584 41.0636L36.3834 41.026L36.4246 41.0319L36.4536 40.9902L36.4926 41.0011L36.5175 40.9621L36.5647 40.973L36.6141 40.939L36.6576 40.9462V40.9299L36.7066 40.9331V40.9145L36.7519 40.9217L37.0873 40.8347L37.1268 40.8592Z" fill="#ADCB53"/>
<path fill-rule="evenodd" clip-rule="evenodd" d="M15.6101 34.6944L15.659 34.5978L15.6799 34.5996L15.7025 34.5199L15.7293 34.5239L15.7238 34.4786L15.7465 34.4863V34.4183L15.7692 34.4233L15.8145 34.3045L15.839 34.31V34.2651L15.8639 34.2705V34.2288L15.8861 34.2343L15.8807 34.1912L15.907 34.193V34.1513L15.936 34.1586V34.1133L15.9736 34.0793V34.0357L16.0203 34.0244L16.0398 33.941L16.0924 33.9297L16.1082 33.8467L16.1631 33.8349L16.1549 33.7955L16.178 33.7973V33.7538L16.227 33.742V33.6989L16.2687 33.6872V33.6441L16.3217 33.6305L16.3127 33.5856L16.3616 33.5716V33.529L16.4333 33.5018V33.4582L16.5017 33.4279V33.3812L16.6205 33.3204V33.2787L16.6644 33.2674V33.2447L16.7057 33.2311V33.1881L17.2818 32.4818L17.3059 32.4837L17.3643 32.412L17.3856 32.4179V32.3508L17.4106 32.3531L17.4065 32.3173L17.4291 32.3209V32.2525L17.4577 32.2584L17.499 32.1369H17.5221V32.1015L17.5447 32.1047V32.0634L17.5688 32.0671V32.0236H17.586V31.9841L17.6145 31.9877V31.9442L17.6354 31.9519V31.9062L17.6562 31.9116V31.8667L17.7052 31.8341V31.7888L17.7492 31.7774L17.7737 31.6963L17.8149 31.6849L17.8457 31.6038L17.8834 31.5879V31.549L17.9096 31.5503V31.5113L17.9781 31.4787L17.9953 31.3917L18.0724 31.369L18.0669 31.3232L18.1367 31.2969L18.2564 31.1664V31.121L18.3013 31.1324L18.343 31.0585H18.3657V31.0191L18.3883 31.0209L18.4609 30.9506L18.5062 30.9393V30.8917L18.5252 30.8958L18.5968 30.8237L18.6404 30.8346L19.2496 30.1709L19.2441 30.1329L19.2745 30.1383L19.2931 30.0531L19.3158 30.059V30.0177L19.3407 30.0213V29.9756L19.3616 29.9796V29.9398L19.3865 29.9438V29.8985L19.411 29.9071V29.8663H19.4318V29.8187L19.4509 29.8287V29.7865L19.479 29.7884L19.4731 29.7466L19.5207 29.7086V29.6691L19.566 29.6583L19.5905 29.5744L19.6585 29.5463L19.678 29.4647L19.7251 29.4534V29.408L19.7478 29.4121V29.37L19.7949 29.3573L19.8176 29.2943L19.8896 29.2662V29.2263L19.9599 29.1941L19.9785 29.1143L20.0959 29.0481V29.0046L20.206 28.9407V28.899L20.5501 28.5087L20.5687 28.5164V28.4747L20.5936 28.4806L20.6204 28.3328L20.6444 28.3405L20.6389 28.2929L20.6675 28.297L20.6861 28.1755L20.7087 28.1796V28.1361L20.7337 28.1438V28.079L20.755 28.0808L20.7758 28.0015H20.798V27.9394L20.8207 27.9466L20.8701 27.826L20.8905 27.8288V27.7857L20.9136 27.7911V27.7481L20.9381 27.7503V27.7045L20.959 27.7141V27.6706L20.9798 27.6742V27.6329L21.0043 27.6343V27.5926L21.0247 27.5985V27.555L21.0746 27.521V27.4774L21.1181 27.4661L21.1675 27.3428L21.2092 27.3319V27.288L21.279 27.2617L21.3017 27.1783L21.3488 27.1651V27.1234L21.4186 27.0944V27.0513L21.4345 27.0536L21.4567 26.9911L21.5084 26.9793V26.9362L21.6026 26.8927V26.8487L21.7123 26.7866V26.7431L21.8511 26.6611V26.618L22.1212 26.1978L22.1516 26.1996L22.1439 26.1579L22.1706 26.1661L22.2137 25.9779L22.2382 25.9838V25.9421L22.2613 25.9444V25.8818L22.2835 25.8873L22.3048 25.8061L22.3329 25.808V25.7418L22.3479 25.7454L22.3923 25.6284L22.4181 25.6316V25.5922L22.4426 25.5981V25.5523H22.4694L22.4621 25.5106L22.4943 25.5183L22.4843 25.4752L22.5151 25.4807L22.5092 25.4313L22.5373 25.4385L22.5296 25.3968L22.5541 25.4009V25.3538L22.6022 25.3234V25.2817L22.6507 25.2663L22.6738 25.1869L22.7132 25.1715L22.7359 25.0922L22.7848 25.0809V25.0373L22.8311 25.0242V24.9825L22.8778 24.9698V24.9277L22.9177 24.9145V24.8651L22.9725 24.8578L22.9553 24.7912L23.016 24.7554V24.7178L23.1126 24.6706L23.1352 24.6076L23.3415 24.3257V24.2214L23.3642 24.2255V24.1616L23.3891 24.1666L23.3796 24.1027L23.4095 24.1063V24.0211L23.4281 24.027V23.9585L23.4875 23.9698V23.9073L23.5142 23.9132L23.5097 23.8484H23.5341V23.8071L23.5573 23.813L23.5795 23.6902L23.6044 23.6933L23.5981 23.6484L23.6253 23.6539V23.5895L23.6497 23.5954L23.6683 23.512L23.6969 23.5197L23.691 23.4721L23.7141 23.478V23.4173L23.7404 23.4232L23.7844 23.3039H23.8084V23.2604L23.8315 23.2636L23.8256 23.2242L23.8542 23.226L23.8954 23.1054L23.9453 23.0895V23.0256L23.9884 23.0125L24.0128 22.9368L24.0541 22.9232V22.876L24.0999 22.8683V22.8216L24.1488 22.8094V22.7663L24.1932 22.7545V22.7151L24.2436 22.6983V22.658L24.2667 22.6603L24.2834 22.5995L24.3365 22.5905V22.5465L24.4004 22.5166V22.4708L24.516 22.41V22.3688L24.8569 21.8729V21.8121H24.8795V21.7496L24.8986 21.7555V21.6648L24.9271 21.6684L24.9212 21.6304L24.9462 21.6354V21.5701L24.9702 21.5742V21.532L24.9906 21.5338V21.4658L25.0137 21.4753V21.4296L25.0405 21.4373V21.3711L25.0572 21.3752L25.0803 21.2936L25.1039 21.3013V21.2578H25.127V21.1934L25.1742 21.1821V21.1213L25.1955 21.1249V21.0819L25.2181 21.0837L25.2145 21.0415L25.268 21.0288L25.2617 20.9853L25.3088 20.9531V20.9074L25.3315 20.9114V20.8693L25.3546 20.8774V20.8317L25.4017 20.8203L25.4239 20.7392L25.4715 20.7292V20.6843L25.5137 20.6694V20.629L25.5658 20.6141L25.5586 20.571L25.6062 20.5588V20.5157L25.6533 20.5021V20.4591L25.7249 20.4269V20.3906L25.7875 20.3543V20.3126L26.0867 19.8947L26.1107 19.9042V19.8399L26.1356 19.8435V19.7773L26.1524 19.7832V19.7193L26.1755 19.7206V19.6413L26.1982 19.6431V19.5978L26.2231 19.5991L26.2702 19.4201L26.2911 19.4219V19.3798L26.3151 19.3838L26.3115 19.3195L26.3342 19.3254L26.3564 19.2456L26.3795 19.2478L26.404 19.149L26.4266 19.1513L26.4688 19.0298L26.4915 19.0316V18.9881L26.5191 18.9958L26.5164 18.9559L26.544 18.9582L26.5404 18.916L26.5613 18.9178V18.8761L26.6107 18.8403V18.7968L26.6542 18.7855L26.6746 18.7025L26.7204 18.693L26.7448 18.6119L26.7884 18.5928L26.8151 18.5135L26.8827 18.4868L26.8795 18.4428L26.9248 18.4296V18.3861L26.972 18.3752L26.9928 18.3122L27.0631 18.2859V18.2406L27.1138 18.2297L27.1079 18.2062L27.1537 18.1971V18.1518L27.2466 18.1042V18.0643L27.8613 17.2352V17.1921L27.8844 17.1994V17.1563L27.9338 17.1405V17.101L27.9792 17.0648V17.0217L27.9978 17.0253V16.9854L28.0454 16.9723L28.0676 16.8889L28.0907 16.8939L28.1152 16.8363L28.1587 16.8186L28.1832 16.7379L28.2498 16.7094V16.6681L28.2951 16.6545V16.6051L28.3654 16.5806V16.5371L28.4542 16.4941V16.4442L28.5485 16.3989V16.3613L28.7588 16.2271L28.753 16.1831L28.806 16.1718L28.8459 16.1133L28.8953 16.1246L29.0825 15.9655L29.1278 15.9728L29.1945 15.9012L29.2393 15.9107L29.3318 15.8196L29.3735 15.8273L29.4229 15.7742L29.4705 15.7797L29.4991 15.7416L29.5612 15.7348V15.7099L29.607 15.723L29.6314 15.6854L29.6804 15.6945L29.7035 15.6532L29.7751 15.6423V15.621L29.9134 15.6061L29.9306 15.5698L29.9796 15.5775L30.0231 15.5394L30.0725 15.5489V15.5304L30.1178 15.5358V15.519L30.1691 15.5245L30.1899 15.4846L30.2525 15.4977V15.4769L30.3472 15.4696V15.4524L30.417 15.4642V15.4429L30.5117 15.4374V15.4188L30.5815 15.4279V15.4089L30.6287 15.4188V15.398L30.699 15.4089V15.3903L30.7388 15.398V15.3713L31.1377 15.3014L31.1781 15.3105L31.2026 15.2674L31.2969 15.2652L31.3195 15.2257L31.4143 15.2217V15.199L31.46 15.2085V15.1881L31.5947 15.1686V15.1519L31.6645 15.1568V15.1401L31.761 15.1346V15.1156L31.8286 15.1287V15.1043L31.8784 15.1156V15.0911L32.0108 15.0988L32.0158 15.078L32.0829 15.0888V15.0644L32.1527 15.0798V15.0607L32.2225 15.0721V15.0494L32.3154 15.0644V15.0453L32.4083 15.0607V15.0435L32.5248 15.0607V15.0435L34.3611 15.4696V15.4927L34.4332 15.5054V15.5245L34.5017 15.5358V15.5585L34.5715 15.5734V15.5943L34.6435 15.6061V15.6283L34.6911 15.6382V15.6568L34.7609 15.6677V15.6945L34.8534 15.7307V15.7516L34.9232 15.7629V15.7901L35.0637 15.8576V15.8762L35.1567 15.9138L35.1812 15.9614L35.2759 16.0018L35.2986 16.0467L35.3457 16.0566L35.3702 16.1038L35.4155 16.1133L35.4404 16.16L35.484 16.17L35.508 16.2153L35.5556 16.223L35.5823 16.272L35.6272 16.2797L35.6961 16.378L35.7451 16.3875L35.8357 16.5108L35.8856 16.5204V16.5371L35.9323 16.5725V16.6146L36.3071 17.0462L36.3756 17.1051V17.1445L36.4531 17.2017V17.2429L36.4921 17.2697L36.5175 17.3458H36.5442V17.3907L36.5873 17.4192L36.6176 17.4872L36.6344 17.4949V17.5362L36.6875 17.5897V17.6291L36.7124 17.6309V17.6763L36.7351 17.6844V17.7252H36.7573V17.7692L36.7804 17.7787V17.82L36.7958 17.8227L36.8502 17.9605L36.8729 17.9682V18.0267L36.8996 18.0344V18.0761L36.9223 18.082V18.1459L36.9436 18.15V18.1971H36.9735V18.261L36.9907 18.2674V18.329L37.0188 18.3331L37.0451 18.4886L37.0664 18.4904L37.3085 19.217L37.3252 19.227L37.3579 19.3136L37.3783 19.3195L37.4032 19.4523L37.4281 19.4555V19.4994L37.4508 19.5012L37.5265 19.7945L37.5415 19.7981V19.8661L37.5737 19.868V19.9346L37.5963 19.9364V20.0175L37.619 20.0275L37.6661 20.3543V22.1304L37.6231 22.4218L37.6022 22.4159V22.4821L37.5773 22.4789V22.5429L37.3783 23.6575L37.3611 23.6539L37.3692 23.9132H37.3366L37.3443 24.1004L37.3198 24.0968V24.2232L37.2971 24.2214V24.3465L37.2699 24.3447V24.4508L37.2495 24.4472V24.5283H37.2346L36.9848 25.3193L36.964 25.3125L36.9395 25.3968L36.9168 25.3914V25.4557L36.8923 25.4499L36.8692 25.531L36.8466 25.5256V25.5695L36.8221 25.5632L36.8298 25.6284L36.7804 25.643V25.6847L36.7351 25.7168L36.4812 26.2717L36.4644 26.3265L36.4413 26.2717L36.3715 26.2164L36.347 26.1221L36.2772 26.0722V26.0274L36.2296 25.997V25.9498L36.1598 25.895L36.1068 25.8216L36.0841 25.8157V25.774L35.9907 25.6928L35.8715 25.5183L35.8266 25.5106L35.8017 25.4385H35.7768V25.3728L35.7505 25.3646V25.2984L35.7278 25.2971V25.2305L35.6997 25.2268V25.1606L35.6784 25.157V25.094L35.6562 25.0922V25.0242L35.6313 25.0219L35.5859 24.8787H35.5556V24.8347L35.5388 24.8288V24.788L35.508 24.7821V24.7404L35.484 24.7345V24.6892L35.4631 24.6874V24.6439L35.4155 24.5927V24.5473L35.3702 24.5188L35.323 24.381L35.2469 24.3239V24.2767L35.1526 24.1992L35.1304 24.1289L35.0805 24.0968V24.0532L35.0089 23.9979V23.9549L34.9409 23.9V23.8565L34.7718 23.6933L34.7473 23.6271L34.702 23.6163V23.5746L34.6073 23.512L34.4899 23.3602L34.4368 23.3515V23.3325L34.3181 23.2409V23.2015L34.2555 23.1621V23.1448L34.1798 23.1127L34.1572 23.0614L34.0148 22.9948L33.9908 22.9422L33.9205 22.9123V22.8892L33.877 22.8833L33.8217 22.8284L33.7782 22.8216V22.7981L33.7347 22.789L33.7048 22.7419L33.6608 22.7378V22.7151L33.61 22.7056L33.5624 22.6526L33.5153 22.643L33.4926 22.5963L33.2823 22.4898V22.469L33.2352 22.4613V22.4386L33.0951 22.3933L32.5516 22.1394L32.2946 22.0678V22.0506L31.5416 21.886L30.1346 21.9087L30.0589 21.8942V21.9146L29.9247 21.9373V21.9522L29.8323 21.9617L29.8073 21.9957L29.7624 21.9885V22.0093L29.7148 22.0016V22.0261L29.6673 22.0161L29.6197 22.0506L29.5748 22.0397L29.5498 22.0809L29.4116 22.1L29.3626 22.153L29.2661 22.1607L29.2511 22.1965L29.1736 22.2079V22.2246L29.1052 22.2364L29.1106 22.2777L28.9859 22.3235V22.342L28.9461 22.3343L28.8291 22.4445L28.7362 22.469V22.5166L28.6664 22.5202V22.5614L28.6183 22.5755V22.5995L28.5712 22.5905L28.4542 22.6943V22.7419L28.437 22.7378L28.3917 22.8176L28.3427 22.8058L28.3196 22.8647L28.2951 22.8624L28.2729 22.9232L28.2212 22.9368L28.2022 23.0175L28.1378 23.0483L28.0852 23.1621L28.0354 23.1811L28.0454 23.226L27.9978 23.2604V23.3039H27.9751V23.3452L27.9511 23.3416V23.3815L27.9279 23.3738V23.4232L27.9053 23.4173V23.459L27.8785 23.4535L27.8314 23.5746H27.8087L27.5816 24.2423L27.5454 24.6666L27.5177 24.6607L27.5059 25.157H27.5227L27.5494 25.5981L27.5757 25.6035L27.6043 25.8664L27.6229 25.8705L27.6288 25.9557L27.6514 25.9589V26.0446L27.6723 26.0523L27.68 26.1352L27.699 26.1411L27.7067 26.205L27.7271 26.2132V26.2771L27.7498 26.283V26.3474H27.7707V26.4149L27.7992 26.419V26.4856L27.8201 26.4874V26.5541L27.8445 26.5613V26.6234L27.8672 26.6275L27.9221 26.7676L27.9429 26.7699V26.8129H27.9619L27.9656 26.8582L27.9919 26.8659V26.9095L28.015 26.9113V26.9589L28.0354 26.9625V27.0019L28.0852 27.0568V27.0985L28.1378 27.1302L28.1832 27.2667L28.2498 27.322L28.2779 27.4144L28.3273 27.4471L28.3482 27.5151L28.3708 27.5187L28.3971 27.589L28.4411 27.5985V27.6361L28.5109 27.695V27.7363L28.5639 27.7689V27.8142L28.6337 27.8709V27.8936L28.6773 27.8977L28.7303 27.952L28.753 28.0187L28.8459 28.1016V28.1687L28.8704 28.1755V28.2363L28.8953 28.244L28.9007 28.3043L28.9234 28.3124V28.3763L28.9461 28.38V28.4235L28.9692 28.4276L28.9932 28.5617L29.0181 28.5672L29.0712 28.7059L29.0938 28.7095V28.7535L29.1169 28.7585V28.8006L29.1315 28.8024V28.8482L29.1618 28.855V28.8931L29.2112 28.9502V28.9915L29.2547 29.0182L29.3037 29.1601L29.3735 29.219L29.4021 29.3056L29.4492 29.3364L29.4705 29.408L29.5671 29.4874V29.535L29.6867 29.6424V29.6823L29.8549 29.8455L29.8776 29.9112L29.9247 29.923L29.9963 30.0875L30.0421 30.2902L30.0725 30.2938V30.3377L30.0929 30.3432V30.4076L30.1178 30.4094L30.1691 30.5454L30.1899 30.5531V30.5948L30.2126 30.6007V30.6455L30.237 30.6514V30.6931L30.2574 30.6972V30.7611L30.3069 30.7933L30.3354 30.8822L30.3848 30.9125L30.4279 31.0508L30.4755 31.0807V31.1265L30.5231 31.1564L30.5512 31.2475L30.5933 31.2761V31.3214L30.6876 31.3989V31.4465L30.7878 31.5258V31.573L30.8581 31.6301L30.8866 31.6736L30.9338 31.6831V31.7058L30.9737 31.738V31.7815L31.0494 31.8119L31.0756 31.8835L31.1192 31.8912L31.1441 31.9406L31.1663 31.9424V31.9877L31.2139 32.0204L31.2366 32.1491L31.2647 32.1577V32.2013L31.2914 32.2053V32.2679L31.3123 32.2715L31.3612 32.412L31.3821 32.4179V32.461L31.407 32.4651V32.5104L31.431 32.5122V32.5535L31.456 32.5557V32.6029L31.4786 32.6051V32.6523L31.524 32.7031L31.5276 32.7466L31.5793 32.7788L31.6187 32.917L31.6944 32.97L31.7175 33.0403H31.742V33.0834L31.8118 33.1441V33.1881L31.9106 33.2692V33.3127L32.0031 33.3925V33.4397L32.1713 33.6042L32.1921 33.6704L32.2397 33.674V33.7198L32.3095 33.7538V33.7746L32.4324 33.888V33.9297L32.4781 33.9578V33.9999L32.5026 34.004V34.0512L32.5248 34.0548V34.1187L32.5516 34.1246L32.62 34.2991H32.6087L32.5919 34.4206L32.5693 34.4183V34.4614L32.5443 34.4559V34.5199L32.5198 34.5149V34.5829L32.4995 34.5788V34.6205L32.4781 34.6132V34.6794L32.4514 34.6735L32.4324 34.7551L32.4083 34.7474V34.8154L32.3875 34.8118L32.3376 34.931L32.3154 34.9256V34.9727L32.2982 34.9632V35.0276L32.2533 35.0443V35.0842L32.2284 35.081V35.1468L32.1812 35.1577V35.2012L32.1599 35.1957V35.2356L32.1164 35.2755V35.3154L32.0693 35.3281L32.0239 35.4473L31.9759 35.465V35.5044L31.9106 35.5348L31.8898 35.6146L31.8195 35.6481V35.6898L31.7719 35.7016L31.7474 35.7637L31.723 35.7565V35.8013L31.6531 35.8322V35.8752L31.5416 35.9799L31.2796 36.3312L31.242 36.3983L31.2198 36.3942V36.4545L31.1985 36.4473V36.5343L31.1736 36.5325V36.5982L31.1554 36.5914L31.1192 36.6513L31.0965 36.644V36.712L31.0756 36.7061V36.7687L31.0494 36.765V36.8067L31.0267 36.8027V36.8693L31.0036 36.8616V36.9074L30.9809 36.8992L30.9202 37.0166L30.9034 37.0148L30.8748 37.0982L30.8581 37.0887V37.1322L30.8336 37.1286V37.197L30.8105 37.193L30.7638 37.2079L30.7765 37.212L30.7824 37.2551L30.7497 37.2501L30.7121 37.3706L30.665 37.382L30.6174 37.503L30.5684 37.5184L30.5285 37.6304L30.4832 37.6526V37.687L30.432 37.7002V37.7473L30.3889 37.7591V37.8022H30.3622L30.339 37.8611L30.2942 37.8724V37.9105L30.228 37.9441V37.9899L30.1836 37.9994V38.0429L30.1346 38.0583L30.1786 38.0841L30.1237 38.0937V38.1413L30.0362 38.289V38.3321L29.8776 38.4246V38.474L29.7851 38.5161L29.3037 39.1349L29.281 39.1313L29.2547 39.2124L29.2393 39.2083V39.2545L29.2112 39.2491V39.3108L29.1945 39.3071L29.1451 39.4277L29.1206 39.4263V39.464L29.0997 39.4603V39.5057L29.0748 39.4989L29.0825 39.5419L29.0576 39.5397V39.5814L29.0104 39.6122V39.6571L28.9633 39.672V39.7328L28.9402 39.7273L28.9157 39.7917L28.8704 39.7994L28.8459 39.8846L28.806 39.8991V39.9408L28.7797 39.9359V39.9812L28.7362 39.9939V40.036L28.6664 40.0641L28.641 40.1475L28.5712 40.1761V40.2192L28.5068 40.2523V40.2935L28.4619 40.3048V40.3465L28.3654 40.3955V40.4349L28.2498 40.502V40.5451L27.9053 40.9689L27.8785 40.9671V41.0523L27.8563 41.0446V41.0918L27.8314 41.0877L27.7498 41.2658L27.7271 41.2581L27.7067 41.3646L27.68 41.3606V41.4009L27.6632 41.3927V41.4589L27.6406 41.4553L27.5912 41.5763L27.5703 41.5709V41.6126L27.5454 41.6085V41.652L27.5227 41.6502V41.7128L27.4756 41.73V41.7885L27.4352 41.8039V41.847L27.4112 41.8397V41.8832L27.3863 41.8796V41.9245L27.3659 41.919V41.9607L27.3187 41.9965V42.0401L27.2743 42.0532L27.2521 42.133L27.2068 42.1443L27.1818 42.2295L27.1138 42.2585L27.0871 42.337L27.0273 42.366L27.0028 42.4285L26.9552 42.4458L26.9289 42.5246L26.8582 42.5514V42.5972L26.7485 42.6611V42.7028L26.6311 42.7635V42.8107L26.2453 43.2499L26.2231 43.3102L26.1982 43.3048V43.3936L26.1755 43.3859L26.1524 43.4675L26.1356 43.4616L26.1107 43.589L26.0867 43.5844L26.0654 43.691L26.0409 43.6833L26.0187 43.7608L25.9937 43.7567V43.8025L25.9674 43.797V43.8632L25.9461 43.8573L25.9053 43.9802L25.8822 43.9765V44.0182L25.8591 44.0164L25.8102 44.1298L25.7626 44.1406V44.19L25.7249 44.2227V44.2626L25.7009 44.2571V44.3038L25.6778 44.302V44.3419L25.6365 44.3569L25.6116 44.4362L25.5658 44.4498V44.491L25.5137 44.5051V44.5481L25.4715 44.5577V44.5998L25.4239 44.6166V44.6574L25.3786 44.6714V44.7145L25.3088 44.7426L25.3129 44.787L25.268 44.7997V44.846L25.1742 44.8927V44.9344L25.0572 44.9983V45.0363L24.9702 45.088V45.112L24.9212 45.1234L24.5214 45.6234L24.4992 45.661L24.4516 45.782L24.4312 45.7802L24.4126 45.8618L24.3895 45.8582V45.9167L24.3646 45.9148V45.9606L24.3428 45.9547V46.0191L24.3161 46.0173L24.2363 46.1288L24.2132 46.1211V46.1682L24.1932 46.1628V46.2249L24.1488 46.2403V46.282L24.0999 46.3142V46.3595L24.079 46.3577V46.3953L24.0541 46.3917V46.4334L24.0092 46.471V46.5127L23.9661 46.525L23.9394 46.6057L23.8954 46.6211V46.6623L23.8505 46.6759V46.7158L23.803 46.7285L23.7803 46.8137L23.7064 46.8445L23.691 46.9234L23.6212 46.9538L23.5024 47.0825V47.126L23.4643 47.1147L23.4158 47.194L23.3927 47.1904V47.228L23.3465 47.2435V47.2657L23.2971 47.2774V47.3246L23.0505 47.4909V47.5295L23.0011 47.5426L22.8891 47.6505L22.842 47.6446L22.8116 47.6791L22.0791 48.3604L22.0569 48.3527L22.0641 48.3944L22.0401 48.3926V48.4324L21.9943 48.4701V48.5131L21.9453 48.5249L21.9209 48.6061L21.8773 48.6197L21.8511 48.7008L21.7826 48.7294L21.7654 48.811L21.6956 48.8431L21.6725 48.9247L21.6067 48.951V48.9945L21.5365 49.0281V49.0684L21.4413 49.1138L21.4245 49.1759L21.3982 49.1718V49.2139L21.3529 49.2026L20.8905 49.6359L20.8438 49.6251L20.8207 49.66L20.6389 49.757V49.8005L20.6163 49.7951L20.522 49.8422V49.8649L20.4821 49.8553V49.8952L20.3837 49.9238V49.9465L20.3407 49.9351L20.3176 49.9732L20.2926 49.9709L20.2681 50.0108L19.8062 50.4591L19.7663 50.4727L19.7401 50.5539L19.6965 50.562V50.611L19.6471 50.6223V50.6654L19.6023 50.6772V50.7189L19.5601 50.7356V50.7737L19.5125 50.7887V50.8322L19.4427 50.8585V50.9061L19.3974 50.9174V50.9591L19.3561 50.9682V50.9913L19.3085 51.0081V51.048L19.216 51.0974V51.1409L19.0569 51.2374V51.2787L18.8942 51.3793L18.8693 51.4383L18.8298 51.4324L18.8067 51.4908L18.7351 51.5022L18.5252 51.6309L17.9264 52.2234L17.8398 52.339V52.3807L17.7909 52.3934L17.77 52.4754L17.7224 52.4885L17.7265 52.5321L17.6789 52.5452L17.6354 52.6019V52.6418L17.586 52.6549L17.552 52.659L17.5048 52.668V52.7098L17.4577 52.7247V52.7664L17.3856 52.8004L17.2737 52.9278V52.969L17.2302 52.9577L17.2039 53.0203L17.1359 53.0488V53.0942L17.0185 53.1581L16.5828 53.484V53.5234L16.5434 53.5579L16.4899 53.5502L16.4487 53.6055L16.2139 53.7129L16.2216 53.7528L16.1513 53.7637L16.0094 53.8226L15.9618 53.8774L15.9169 53.8702L15.848 53.9006L15.8245 53.94L15.8104 53.9704L15.7937 54.0098L15.6309 54.0461V54.0896L15.5421 54.0937V54.1145L15.4945 54.1045L15.4718 54.1426L15.4206 54.1331V54.158L15.3771 54.1444L15.3299 54.1594L13.9234 55.076L13.8839 55.066L13.8064 55.1417L13.767 55.1326V55.1498L13.6967 55.1857L13.6722 55.2215L13.6228 55.212L13.6074 55.2555L13.5544 55.2405L13.5068 55.2972L13.4619 55.2899L13.4184 55.3448L13.3196 55.3484L13.2801 55.4055L13.233 55.3992L13.2135 55.4336L13.1151 55.4395L13.0902 55.4771L13.0036 55.4826L12.9809 55.5184L12.932 55.5111L12.8862 55.551L12.8413 55.5374V55.5583L12.7937 55.551L12.7706 55.5909L12.6741 55.5941L12.6818 55.6154L12.6346 55.6077V55.6245L12.4946 55.6453V55.6716L12.4248 55.6507V55.6757L12.3772 55.6716V55.6875L12.2407 55.7042V55.7269L12.1029 55.7192V55.7419L12.0517 55.7328V55.7573L11.8432 55.7613V55.7781L11.7978 55.7722V55.7931L11.7095 55.7781V55.7949L11.6392 55.7836V55.8085L11.5689 55.7931V55.818L11.4973 55.8062V55.8234L11.4098 55.8085L11.0182 55.8402L10.7852 55.8198V55.8402L9.39038 55.6453V55.6208L8.89629 55.5111L7.96295 55.1684V55.144L7.6606 55.0266V55.0062L7.6189 54.9962V54.9717L7.54864 54.9622V54.9395L7.40449 54.8924V54.8715L7.35554 54.8634V54.8448L7.28573 54.8257V54.8072L7.19643 54.7668V54.7482L7.15155 54.7387V54.716L7.07948 54.7052V54.6861L6.98519 54.6422V54.6213L6.94122 54.6141V54.5968L6.86734 54.5796L6.84648 54.5329L6.79164 54.527V54.5025L6.75174 54.4948V54.4717L6.70279 54.4663V54.4418L6.65746 54.4323L6.61032 54.3847L6.56453 54.3734L6.54187 54.328L6.39999 54.256L6.37506 54.2111L6.28258 54.1753L6.2368 54.1014L6.18966 54.0914L6.15929 54.0447L6.11804 54.0347L6.11214 54.0116L6.04778 53.9803L6.02511 53.9309L5.97797 53.9232L5.93218 53.8512L5.88459 53.8416L5.86192 53.7963L5.81161 53.785L5.76537 53.7147L5.72049 53.7075L5.62576 53.5805L5.58043 53.5746L5.46076 53.4232L5.41407 53.4142L5.11081 53.0602L4.9236 52.8729V52.8294L4.75543 52.668V52.6282L4.66567 52.5452V52.5053L4.5732 52.4196L4.56595 52.3807L4.5179 52.348V52.3068L4.45036 52.2515V52.2102L4.39914 52.1794L4.37647 52.1119L4.35562 52.106V52.0624L4.30621 52.0321V51.9926L4.26088 51.9541V51.9165L4.21963 51.8843L4.16841 51.7465L4.119 51.7202L4.07367 51.5838L4.02426 51.5516L3.99797 51.4646L3.9753 51.4587V51.4156L3.95264 51.4097V51.3675L3.92635 51.3639V51.3204L3.90912 51.3168L3.90142 51.271L3.88056 51.266V51.2053L3.83161 51.1744V51.1146L3.80894 51.1046L3.78582 51.0181L3.76271 51.0158V50.9478H3.73868L3.71602 50.8549L3.6929 50.8494L3.66434 50.7189L3.63805 50.7107V50.6695L3.61539 50.6654V50.5788L3.59272 50.5729V50.533L3.57368 50.5294V50.446L3.54558 50.4387V50.3721L3.52291 50.368V50.3023L3.49979 50.3005L3.46988 50.1468L3.45492 50.1432L3.42636 49.9465L3.39962 49.9428V49.8553L3.38239 49.8517V49.7611H3.35429V49.6359L3.32981 49.6282L3.30488 49.3232L3.2804 49.3177L3.22192 48.4964L3.24686 48.5023L3.2804 47.7167L3.30488 47.7226V47.5916L3.32981 47.5975V47.4687L3.35429 47.4742L3.3697 47.2833L3.39418 47.2892L3.38874 47.1832L3.41503 47.1872L3.4114 47.1034H3.43769L3.46036 46.9579L3.48121 46.9674V46.9003L3.50387 46.903V46.8364L3.52881 46.8445V46.7589H3.55102L3.54558 46.7172L3.57368 46.7213L3.61539 46.5354L3.63805 46.5395L3.66434 46.4602L3.68565 46.4674L3.70468 46.3369L3.73324 46.3486L3.78039 46.2249L3.80486 46.2326V46.1873L3.81982 46.1927L3.84249 46.0912L3.89008 46.0753L3.91229 45.9774L3.96397 45.9606L3.95672 45.9167L4.00386 45.8863V45.8373L4.02426 45.845V45.8029L4.04919 45.807V45.7634L4.09089 45.7553L4.14574 45.627L4.1607 45.6324L4.18337 45.5744L4.23051 45.5644V45.5191L4.27992 45.5073V45.4661L4.34973 45.4339L4.37239 45.3487L4.44265 45.3283V45.2807L4.50702 45.2503V45.2068L4.61853 45.1447V45.1007L4.73457 45.035V44.9951L4.82297 44.9475V44.9004L4.97074 44.846V44.8015L5.12804 44.705L5.15251 44.6656L5.19784 44.6714L5.24725 44.6388L5.24136 44.5957L5.47209 44.4838V44.4462L5.65613 44.3723L5.67698 44.3342L5.72593 44.3419L5.77353 44.2866L5.81841 44.3002L5.866 44.2395L5.91315 44.2472L5.93218 44.2113L6.00063 44.2V44.1814L6.04778 44.19L6.07271 44.1483L6.11804 44.1624L6.14251 44.1225L6.18966 44.1298L6.78393 43.725L7.12889 43.365H7.15699L7.31383 43.2064L7.3365 43.2082V43.166L7.42716 43.0981L7.49606 43.0903L7.6606 42.9507L8.32876 42.4716V42.4317L8.36684 42.3773L8.41761 42.3429V42.2975L8.44028 42.2993V42.2585L8.4856 42.2463V42.2069L8.5332 42.167L8.52731 42.1271L8.57264 42.1158V42.0704L8.62159 42.0591V42.0156L8.66783 41.9607L8.71497 41.9453L8.83011 41.8207L8.96429 41.6733V41.6316L9.01324 41.6371L9.13654 41.5763L9.15376 41.5786V41.5387L9.24261 41.4875V41.4666L9.28839 41.4553V41.4154L9.42982 41.3288L9.69863 41.0428L9.74441 41.0446L9.88856 40.9213L9.93389 40.9331L9.97332 40.8098L10.0205 40.8211L10.1152 40.7287L10.1623 40.7382L10.185 40.7001L10.2326 40.7037L10.2761 40.6489L10.471 40.5147L10.515 40.4825L10.5431 40.4671L10.7303 40.2686L10.7471 40.1852L10.7698 40.1888L10.7947 40.1303L10.8405 40.119V40.0755L10.884 40.0641V40.0206L10.9842 39.9694L11.0009 39.8883L11.0449 39.8769L11.0689 39.8198L11.1882 39.7536V39.7119L11.3001 39.6476V39.604L11.5272 39.4545L11.5499 39.396L12.4297 38.4894L12.4778 38.4781L12.5231 38.3588L12.5725 38.3452L12.616 38.2206L12.6346 38.2265L12.6591 38.1657L12.7067 38.1549L12.7276 38.0728L12.7974 38.0429L12.82 37.9631L12.8862 37.9314V37.8879L12.9565 37.8611V37.814L13.0036 37.8022V37.7591L13.121 37.6961L13.1151 37.6544L13.233 37.5887V37.5488L14.2284 36.1368L14.257 36.0914L14.3041 36.0819L14.3291 35.9926L14.3757 35.9876L14.3989 35.9002L14.446 35.8906V35.8453L14.4931 35.8322L14.4873 35.7882L14.533 35.7791V35.7338L14.5802 35.7225V35.6826L14.6468 35.6481V35.6105L14.7184 35.5742L14.7148 35.5348L14.834 35.4741V35.4246L14.9473 35.3662V35.3231L15.0439 35.2755L15.0385 35.2302L15.0901 35.1957L15.1332 35.2075" fill="#00B0A9"/>
<path fill-rule="evenodd" clip-rule="evenodd" d="M32.6462 34.2039L32.7147 33.9577L32.7564 33.9677L32.828 33.6821L32.8715 33.6613L32.8942 33.6064L32.9191 33.6082L32.9436 33.5493L32.9889 33.5525L33.0841 33.4011L33.1313 33.411L33.2183 33.2311L33.2654 33.2406L33.3579 33.0402L33.4055 33.0498L33.5002 32.892V32.8263L33.5474 32.8186L33.542 32.7547L33.585 32.7392L33.6099 32.6332L33.6349 32.6427V32.5969L33.6816 32.5842L33.7047 32.4568L33.7514 32.4664L33.7745 32.3209L33.8162 32.3059L33.8411 32.1368L33.8865 32.1241L33.9091 31.9537L33.9585 31.9424V31.834L33.9753 31.8399V31.7551L34.0283 31.7379L34.0451 31.4823L34.0923 31.4691L34.0855 31.2969L34.1081 31.3005V31.2361L34.1344 31.242L34.1571 31.1396L34.1797 31.1436L34.2269 31.1282L34.2495 31.0262L34.318 31.019L34.3139 30.956L34.3611 30.9601L34.3896 30.8553L34.4617 30.8485L34.4535 30.7801L34.5016 30.7932L34.5487 30.6514L34.5945 30.6595L34.6226 30.534L34.6661 30.5435L34.827 30.1822L34.8701 30.1908L34.895 30.0666L34.9408 30.0739L34.9653 29.9279L35.0088 29.9397L35.0315 29.7466L35.0745 29.7575L35.1448 29.4646L35.1693 29.4683L35.192 29.2543L35.2355 29.2466L35.2531 28.9479L35.3039 28.9347V28.8481H35.3288L35.3932 28.7117L35.4404 28.7208L35.5079 28.6696L35.6271 28.4316L35.6675 28.4402L35.7622 28.2362L35.8093 28.2471L36.4453 26.4457L36.4702 26.4479L36.4888 26.4022H36.511V26.4479L36.536 26.4498V26.4969L36.5586 26.4987V26.5404L36.5795 26.5445V26.5876L36.6058 26.5935V26.637L36.6284 26.6406V26.6859L36.6516 26.69V26.7313L36.6747 26.7335L36.7236 26.8695L36.7486 26.8772L37.1738 27.6152V27.6646L37.2662 27.7439V27.7856L37.3365 27.8387V27.8822L37.4072 27.9393V27.9864L37.4539 28.0132V28.0562L37.5038 28.0866L37.5264 28.1569H37.5486V28.2022L37.6021 28.2493V28.2929L37.623 28.2969V28.3459L37.6715 28.3726L37.6964 28.4633L37.7136 28.4692L37.7644 28.6074L37.7912 28.6102V28.6777H37.812L37.8342 28.7661L37.8591 28.772L38.2644 29.3364V29.3794L38.3782 29.4873V29.529L38.4738 29.612V29.6541L38.5445 29.7085V29.7507L38.5935 29.7824V29.8286L38.6619 29.883V29.9279L38.7091 29.9546L38.7317 30.0476L38.7807 30.0761L38.8265 30.2121L38.8754 30.2466L38.8967 30.3313L38.9194 30.3377L38.9493 30.4279L38.972 30.4302V30.4959H38.9965L39.0209 30.5906L39.0423 30.5947L39.0649 30.7062L39.0917 30.7085L39.4888 31.276V31.32L39.6062 31.4274L39.6098 31.4668L39.68 31.5258V31.5675L39.7444 31.6246V31.6677L39.7938 31.6944L39.8242 31.7642L39.8469 31.7701V31.8095L39.894 31.8399L39.9167 31.9324L39.9561 31.9591L40.0091 32.1015L40.0323 32.1028V32.1432L40.0567 32.1491V32.1939H40.0853V32.2415L40.1057 32.2456L40.1497 32.3811L40.1755 32.3852V32.4496L40.1986 32.4555V32.4967L40.2195 32.5004L40.2272 32.5647L40.2494 32.567V32.6137L40.2743 32.62V32.679L40.297 32.6862V32.7465L40.3219 32.7547V32.8186L40.3428 32.8222L40.4846 33.0402L40.602 33.212L40.6247 33.2179L40.6492 33.2864L40.7195 33.3435V33.3811L40.7725 33.4169V33.4568L40.8364 33.5135V33.5525L40.884 33.5856L40.9103 33.6554H40.9307L40.9597 33.7478L41.0068 33.7841V33.8217L41.054 33.8748V33.9183L41.0789 33.9201V33.9636L41.0943 33.9677L41.0993 34.013L41.1469 34.0398V34.1041L41.17 34.1073V34.1513L41.1941 34.1585L41.2172 34.246L41.2398 34.251V34.3158L41.2648 34.3181V34.3616L41.287 34.3648L41.3155 34.4785H41.34V34.5447L41.3645 34.5506L41.6428 35.0524L41.7357 35.1295V35.1784L41.811 35.2319V35.2754L41.8563 35.304V35.3457L42.02 35.6145L42.0666 35.6426V35.6879L42.1197 35.741V35.7791L42.1428 35.7868V35.828L42.1673 35.8321V35.8792H42.1899V35.9187L42.2108 35.9228L42.2598 36.061L42.2847 36.0705L42.6822 36.6344L42.7294 36.7101L42.752 36.7119V36.7536L42.854 36.8316V36.8806L42.9166 36.9354V36.9771L42.9923 37.0342V37.0737L43.0381 37.1095V37.1494L43.087 37.1779L43.1115 37.2477L43.1346 37.2518L43.1568 37.3443L43.2044 37.3728L43.2253 37.4635L43.3445 37.696H43.3785L43.3726 37.7187L43.3028 37.7473V37.7677L43.2634 37.7645V37.7872L43.2081 37.774L43.1686 37.8329L43.1401 37.8248V37.8724L43.1233 37.8688L43.0906 37.9028L43.0508 37.8969L43.0263 37.9576L42.956 38.0106L42.9279 38.0052V38.0292L42.8862 38.0179V38.0387L42.8164 38.0727V38.1126L42.7729 38.128V38.1716L42.6763 38.2187L42.5589 38.3057V38.3479L42.5345 38.3452V38.3873L42.466 38.4213V38.4385L42.417 38.4327L42.3944 38.4739L42.3015 38.478L42.0666 38.5424L41.995 38.5918V38.614L41.9511 38.6049V38.6258L41.9039 38.6162L41.8563 38.6724L41.811 38.6675L41.7847 38.7033L41.7357 38.6992L41.5975 38.8189L41.554 38.8152L41.4819 38.8891L41.4103 38.8964L41.3853 38.9567L41.3155 38.9662V39.0083L41.2453 39.0627L41.2285 39.0555V39.0781L41.1528 39.089L41.136 39.1217L41.0599 39.1117L41.0413 39.1561L40.9937 39.1439V39.1688L40.9429 39.1593V39.1765L40.8482 39.1616V39.1806L40.7054 39.1996V39.2237L40.6356 39.2082L40.6397 39.235L40.5962 39.2237L40.5681 39.2613L40.4733 39.2672L40.2272 39.4276L39.9053 39.5813L39.3736 39.8442L39.3015 39.8918L39.0209 40.1475L38.9552 40.1969L38.7431 40.2232L38.6982 40.2798L38.482 40.3048L38.4629 40.3465H38.3664L38.3229 40.4068L38.2757 40.3995L38.2531 40.4349L38.1506 40.443L38.1094 40.4979L38.0164 40.545L37.9693 40.5355V40.5786L37.9253 40.5695L37.8759 40.6302L37.8229 40.6189L37.831 40.6398L37.7816 40.6302V40.6511L37.7304 40.6701L37.7363 40.7078L37.6887 40.7245V40.744L37.5962 40.7508L37.5736 40.7835L37.0908 40.8265L36.8184 40.4825L36.7486 40.4272L36.7236 40.3632L36.6253 40.278V40.2386L36.5586 40.176V40.142L36.4811 40.0813V40.0373L36.4353 40.0079V39.9621L36.3864 39.9358L36.3637 39.8483L36.3184 39.8125L36.2939 39.7255L36.2731 39.7232L36.2481 39.633L36.2255 39.623V39.5831L36.1992 39.5772L36.1597 39.5283L36.1425 39.5265L35.9263 39.235L35.754 39.0292V39.0006L35.6561 38.9227V38.885L35.4272 38.6448V38.6026L35.3701 38.5251V38.4821L35.323 38.4531V38.4118L35.2677 38.3774V38.342L35.2228 38.3057V38.2658L35.177 38.2373V38.1942L35.1299 38.1616V38.1167L35.1054 38.1144L35.0804 38.0238L35.0356 37.9952L35.0088 37.9028H34.988L34.8987 37.7591L34.8742 37.7532V37.687L34.8592 37.6852L34.8307 37.5922L34.8044 37.5886L34.3611 36.9712V36.9282L34.2437 36.8257V36.7804L34.1738 36.7237V36.6798L34.1022 36.6267V36.5832L34.0564 36.5565V36.5075L34.0093 36.4808L33.9789 36.411L33.9622 36.4051L33.9091 36.2654L33.8656 36.2387L33.3942 35.406L33.3656 35.3321L33.1784 35.1526V35.1082L33.0841 35.0275V34.9858L32.9889 34.9046V34.8571L32.9436 34.8271L32.9191 34.7569H32.8942V34.7152L32.8507 34.6834V34.6413L32.8017 34.6109V34.566L32.7564 34.5338V34.4971L32.6367 34.3253V34.3099L32.6503 34.314L32.6462 34.2039Z" fill="#B9C125"/>
<path fill-rule="evenodd" clip-rule="evenodd" d="M32.525 34.119V34.0546L32.5023 34.0515V34.0039L32.4779 33.9998V33.9581L32.4325 33.93V33.8878L32.3092 33.7745V33.7537L32.2394 33.7197V33.6743L32.1923 33.6707L32.1714 33.6041L32.0033 33.44V33.3924L31.9108 33.3131V33.2695L31.812 33.1879V33.1444L31.7417 33.0837V33.0402H31.7177L31.6946 32.9704L31.6189 32.9173L31.579 32.7791L31.5278 32.7469L31.5241 32.7034L31.4783 32.6526V32.605L31.4561 32.6027V32.5561L31.4312 32.5538V32.5121L31.4067 32.5103V32.4654L31.3822 32.4613V32.4178L31.3614 32.4119L31.312 32.2718L31.2911 32.2682V32.2052L31.2648 32.2016V32.1581L31.2363 32.149L30.9734 31.7818V31.7378L30.9335 31.7061V31.6835L30.8868 31.6735L30.8578 31.6304L30.788 31.5733V31.5257L30.6873 31.4464V31.3992L30.5931 31.3213V31.2764L30.5514 31.2474L30.5232 31.1567L30.4757 31.1264V31.081L30.4281 31.0507L30.3845 30.9128L30.3356 30.882L30.3066 30.7932L30.2576 30.7614V30.6971L30.2368 30.693V30.6518L30.2123 30.6459V30.6005L30.1901 30.5951V30.5534L30.1692 30.5452L30.1175 30.4092L30.0931 30.4074V30.3435L30.0727 30.3376V30.2941L30.0418 30.2905L29.6865 29.6826V29.6427L29.5672 29.5353V29.4872L29.4707 29.4079L29.4494 29.3363L29.4018 29.3059L29.3737 29.2189L29.3039 29.1604L29.2545 29.0181L29.211 28.9913V28.9505L29.162 28.8934V28.8553L29.1316 28.8481V28.8023L29.1167 28.8009V28.7588L29.094 28.7533V28.7094L29.0713 28.7062L29.0183 28.5675L28.9934 28.5616L28.9689 28.4274L28.9458 28.4238L28.9236 28.3762L28.9009 28.3046L28.7531 28.019L28.6774 27.8975L28.6339 27.8939V27.8712L28.5641 27.8146V27.7688L28.5111 27.7366V27.6949L28.4408 27.636V27.5983L28.3973 27.5893L28.371 27.5186L28.3479 27.5154L28.327 27.4469L28.2781 27.4148L28.2495 27.3223L28.1833 27.267L28.1375 27.1305L28.085 27.0988V27.0571L28.0356 27.0023V26.9628L28.0152 26.9587V26.9116L27.992 26.9098V26.8663L27.9653 26.8581L27.9621 26.8132H27.9431V26.7697L27.9222 26.7675L27.8674 26.6278L27.8447 26.6238V26.5612L27.8198 26.5544V26.4873L27.7989 26.4855V26.4193L27.7708 26.4152V26.3472H27.75V26.2833L27.7273 26.277V26.2135L27.7065 26.2054L27.6992 26.141L27.6802 26.1356L27.6725 26.0521L27.6516 26.0449V25.9592L27.6285 25.9556L27.6231 25.8708L27.6045 25.8668L27.5759 25.6038L27.5492 25.5979L27.5229 25.1569H27.5061L27.5174 24.661L27.5455 24.6664L27.5818 24.2426L27.8089 23.5744H27.8316L27.8787 23.4539L27.9055 23.4588V23.4176L27.9277 23.423V23.3741L27.9508 23.3818V23.3419L27.9753 23.3451V23.3043H27.9979V23.2607L28.0451 23.2263L28.0356 23.181L28.085 23.1619L28.1375 23.0482L28.2024 23.0178L28.2214 22.9366L28.2726 22.9235L28.2953 22.8628L28.3198 22.865L28.3424 22.8061L28.3918 22.8174L28.4367 22.7381L28.4544 22.7417V22.6946L28.5709 22.5903L28.6185 22.5998V22.5754L28.6661 22.5618V22.5201L28.7364 22.5164V22.4693L28.8293 22.4444L28.9458 22.3347L28.9857 22.3424V22.3238L29.1108 22.278L29.1053 22.2363L29.1733 22.225V22.2082L29.2508 22.1964L29.2663 22.1606L29.3624 22.1533L29.4118 22.0999L29.55 22.0808L29.5745 22.04L29.6198 22.0509L29.667 22.0164L29.715 22.026V22.0019L29.7622 22.0092V21.9883L29.8075 21.9961L29.8324 21.9621L29.9249 21.9521V21.9376L30.0591 21.9145V21.8941L30.1348 21.9086L31.5414 21.8864L32.2943 22.0509V22.0677L32.5517 22.1393L33.0953 22.3936L33.2349 22.4385V22.4611L33.2825 22.4693V22.4901L33.4928 22.5962L33.5155 22.6434L33.5626 22.6524L33.6102 22.7055L33.661 22.7154V22.7381L33.7049 22.7417L33.7349 22.7893L33.7784 22.7979V22.8215L33.8214 22.8288L33.8767 22.8836L33.9203 22.8895V22.9122L33.9905 22.9425L34.0145 22.9951L34.1573 23.0613L34.1795 23.113L34.2552 23.1447V23.1619L34.3178 23.2018V23.2413L34.437 23.3324V23.3514L34.49 23.3605L34.6075 23.5123L34.7022 23.5744V23.6161L34.7471 23.627L34.772 23.6936L34.9406 23.8564V23.8999L35.0086 23.9547V23.9983L35.0807 24.0536V24.0971L35.1301 24.1293L35.1528 24.1991L35.2471 24.2766V24.3242L35.3232 24.3813L35.3699 24.5186L35.4157 24.5477V24.5925L35.4628 24.6442V24.6873L35.4837 24.6891V24.7349L35.5082 24.7408V24.782L35.5385 24.7879V24.8292L35.5557 24.835V24.8786H35.5861L35.6559 25.0245L36.0843 25.7743V25.816L36.1065 25.8214L36.16 25.8949L36.2298 25.9502V25.9968L36.2769 26.0272V26.0725L36.3472 26.122L36.3712 26.2162L36.4415 26.2715L36.4642 26.3268V26.3341L36.4886 26.3645V26.4025L36.47 26.4479L36.4451 26.4456L35.8091 28.2475L35.7625 28.2361L35.6677 28.4406L35.6274 28.4315L35.5082 28.6699L35.2353 29.247L35.1922 29.2547L35.1695 29.4682L35.1446 29.4646L35.0748 29.7578L35.0313 29.7465L35.0086 29.9396L34.9656 29.9283L34.9406 30.0738L34.8953 30.067L34.8704 30.1912L34.8268 30.1821L34.6664 30.5434L34.6229 30.5343L34.5943 30.6595L34.549 30.6518L34.5014 30.7932L34.4615 30.8485L34.3613 30.96L34.3178 31.0189L34.0925 31.469L34.0281 31.7378L33.9751 31.7551V31.8403L33.9583 31.8344V31.9423L33.9094 31.9541L33.8867 32.1245L33.8409 32.1372L33.8164 32.3058L33.7747 32.3208L33.7516 32.4663L33.7049 32.4572L33.6818 32.5842L33.6347 32.5973V32.6426L33.6102 32.6336L33.5853 32.7392L33.5417 32.7546L33.5476 32.819L33.5 32.8262V32.8924L33.4053 33.0501L33.3582 33.0402L33.2657 33.241L33.2181 33.2315L33.1315 33.411L32.7566 33.9676L32.6465 34.2038L32.6501 34.3144L32.637 34.3103V34.3026L32.6202 34.299L32.5517 34.1249L32.525 34.119Z" fill="#008D93"/>
<path fill-rule="evenodd" clip-rule="evenodd" d="M51.3183 43.42L51.2957 43.3316L51.2259 43.2745L51.2009 43.1612L51.1783 43.1571L51.0803 43.0075L50.7753 42.8013V42.7537L50.7032 42.7219L50.6805 42.6739L50.6275 42.6653L50.5572 42.5665L50.5083 42.5569L50.395 42.425L50.3401 42.3493L50.3002 42.343L50.2227 42.2183L50.1787 42.2124L50.0595 42.0402L50.0314 42.0334V41.9894L49.8873 41.8548V41.8135L49.8496 41.7814V41.7356L49.7966 41.7052V41.664L49.7037 41.6222L49.5319 41.2474L49.4879 41.2379L49.2876 40.7914L49.2381 40.7551V40.7157L49.2173 40.7079L49.1933 40.5738L49.1702 40.5697V40.5049L49.1475 40.5022V40.4351L49.1207 40.4314V40.3675L49.0985 40.3634L49.0945 40.2764L49.0759 40.2728L49.045 40.1359L49.0228 40.1304V40.0865L49.0002 40.0815V39.9958L48.9752 39.994L48.9712 39.8616L48.9503 39.8585L48.9471 39.7465L48.9263 39.7429L48.9222 39.5688L48.8995 39.5647L48.5528 38.3744L48.5305 38.1527L48.5056 38.1491V38.1033L48.4843 38.1019L48.4771 37.9501L48.4299 37.9143V37.6795L48.3791 37.6527L48.3696 36.9714L48.419 36.966V36.7176L48.4644 36.7294L48.4843 36.519H48.5056V36.4361L48.5305 36.4415V36.3277L48.5754 36.3169V36.2294L48.623 36.2203L48.6457 36.0707L48.6951 36.0821L48.7577 35.8513L48.8048 35.8586V35.7983L48.8524 35.8037L49.0396 35.5145L49.0863 35.5254L49.1566 35.3835L49.2041 35.393V35.3459L49.2499 35.3532L49.3651 35.2036L49.4086 35.2113V35.1678L49.4879 35.1845L49.5559 35.1297L49.5468 35.0862L49.5958 35.0961V35.0544L49.6434 35.0599L49.6923 35.0055L49.7363 35.0105L49.7626 34.9747L49.8311 34.9633V34.9198L49.9485 34.8572L50.1579 34.8291V34.7888L50.395 34.7702V34.7226L50.6048 34.6945L50.6805 34.7131V34.6904L50.7259 34.6945V34.6737L50.8147 34.6904L50.8433 34.6528L51.0971 34.6796L51.118 34.6415L51.3351 34.6796L51.36 34.6415L51.7349 34.7131L51.7879 34.6945L52.4185 34.84V34.8822L52.942 35.0445V35.0862L53.0617 35.1084V35.1528L53.4456 35.2702L54.3735 35.7693L54.5304 35.8586V35.8794L54.6247 35.898L54.6482 35.942L54.7425 35.9619V35.9878L54.8128 36.0009V36.0177L54.8862 36.0326V36.0576L54.9823 36.0725V36.0952L55.3155 36.2389V36.2865L55.7837 36.5476V36.5875L55.8667 36.6269L55.9555 36.7353V36.7498L56.0031 36.762L56.0258 36.8731L56.0539 36.8753V36.966L56.0707 36.9714V37.0077L56.1015 37.0149V37.0816L56.1242 37.0847V37.1777H56.1487V37.2194L56.1713 37.2235V37.3327L56.2189 37.3617L56.2244 37.5186L56.272 37.5489V37.7475L56.3168 37.7679L56.3227 38.1409L56.3758 38.4387L56.3531 38.4247V38.5163L56.3286 38.5104V38.8852L56.2833 38.8966L56.2869 39.091L56.2411 39.101V39.2556L56.194 39.2696V39.3789L56.1713 39.3757V39.4151L56.1487 39.4133V39.499L56.1296 39.4967V39.5398L56.1069 39.5344L56.0788 39.684L56.058 39.6762L56.0371 39.7805L55.9882 39.7764V39.8598L55.9442 39.8544V39.9392L55.8971 39.9301L55.8554 40.0756L55.8023 40.0643L55.7611 40.1853L55.689 40.2179V40.2837L55.5965 40.3956L55.5449 40.3879L55.5508 40.4274L55.5027 40.4224V40.4672L55.4619 40.4582L55.2915 40.6626L55.2457 40.6585V40.7002L55.034 40.7914V40.8331L54.8921 40.8743V40.9174L54.5005 41.2152L54.4492 41.2016L54.4547 41.27L54.4062 41.2814V41.3272L54.3314 41.3566V41.3947L54.2593 41.4305V41.4727L54.1727 41.5203L54.1251 41.5765V41.6222L54.0803 41.6127L53.9855 41.7034L53.9629 41.6993V41.7415L53.8903 41.7718L53.8663 41.8113L53.8223 41.804L53.073 42.3566L53.054 42.353L53.0295 42.4133L52.9842 42.4282V42.4699L52.9389 42.4835V42.527L52.8899 42.5402V42.5832L52.8174 42.6141V42.6612L52.7489 42.6879L52.7245 42.7496L52.632 42.7976L52.4901 42.9033L52.496 42.945L52.4185 42.9568L52.2834 43.0837L52.2362 43.0701L52.21 43.1118L52.1624 43.1004L52.1003 43.1761L52.0227 43.1839L51.9978 43.2233L51.9584 43.2156L51.928 43.25L51.8881 43.246L51.8636 43.2858L51.8183 43.2745V43.299L51.7499 43.3049L51.7236 43.3466L51.676 43.3384L51.6288 43.3937L51.5835 43.3842L51.4584 43.5129L51.4661 43.5565H51.4584L51.4434 43.5356V43.5166L51.409 43.5207L51.3487 43.4264L51.3183 43.42Z" fill="#5FAD4D"/>
<path fill-rule="evenodd" clip-rule="evenodd" d="M37.5967 40.751L37.6892 40.7437V40.7242L37.7368 40.7075L37.7309 40.6699L37.7821 40.6508V40.63L37.8315 40.6399L37.8233 40.6191L37.8764 40.63L37.9258 40.5697L37.9698 40.5787V40.5352L38.0169 40.5452L38.1098 40.4976L38.1511 40.4428L38.2535 40.435L38.2762 40.3997L38.3238 40.4065L38.3668 40.3462H38.4634L38.4824 40.305L38.6987 40.28L38.7435 40.2234L38.9557 40.1966L39.0219 40.1477L39.302 39.8915L39.3741 39.8444L39.7943 39.5951L39.87 39.6082V39.5688L40.1918 39.411L40.4738 39.2674L40.5685 39.2615L40.5966 39.2238L40.6401 39.2347L40.6361 39.2084L40.7059 39.2238V39.1994L40.8486 39.1803V39.1613L40.9434 39.1762V39.159L40.9942 39.169V39.1441L41.0418 39.1558L41.0603 39.1119L41.1365 39.1214L41.1533 39.0892L41.229 39.0783V39.0557L41.2457 39.0625L41.316 39.0081V38.9659L41.3858 38.9568L41.4107 38.8961L41.4824 38.8893L41.5544 38.815L41.5979 38.8186L41.7362 38.6994L41.7852 38.703L41.8115 38.6672L41.8568 38.6726L41.9044 38.6164L41.9515 38.6259V38.6051L41.9955 38.6142V38.5915L42.0671 38.5425L42.3019 38.4777L42.6768 38.2189L42.7733 38.1717V38.1282L42.8169 38.1128V38.0729L42.8867 38.0389V38.0181L42.9284 38.0294V38.0049L42.9565 38.0108L43.0267 37.9578L43.0512 37.897L43.0911 37.9029L43.1237 37.8689L43.1405 37.8721V37.825L43.1691 37.8331L43.2085 37.7742L43.2638 37.7873V37.7647L43.3033 37.7678V37.7475L43.3731 37.7189L43.379 37.6962H43.398V37.698V37.7475L43.4964 37.8082V37.8499L43.684 37.9954V38.0371L43.7348 38.0462V38.0901L43.7819 38.1015V38.1409L43.8277 38.1527L43.8313 38.1939L43.8789 38.2057L43.9941 38.3988L44.0417 38.4061L44.0947 38.5217L44.1437 38.5366V38.5761L44.1872 38.5842L44.3558 38.853L44.6944 39.2238V39.2674L44.7851 39.3036V39.3467L44.9029 39.4133V39.4546L44.9501 39.4641V39.5099L44.9972 39.5153L45.0013 39.5647L45.1205 39.6876L45.1695 39.7007V39.7424L45.2153 39.7537V39.7918L45.2624 39.8027L45.4306 40.0756L45.4782 40.081V40.1304L45.5253 40.1359V40.1984L45.5688 40.2084L46.1898 40.9106V40.9536L46.2388 40.9618L46.3109 41.0824L46.358 41.0919L46.3621 41.139L46.4092 41.1467L46.4813 41.2659L46.5266 41.2718V41.3212L46.572 41.3271L46.6499 41.4953L46.6989 41.5007V41.552L46.7442 41.5551L46.814 41.717L46.8598 41.7297V41.7927L46.9074 41.8035L46.9355 41.8697L46.9559 41.8738L46.9827 41.9889L47.0303 42.0175V42.0642L47.0779 42.095V42.1594L47.13 42.1875L47.1513 42.3262L47.2007 42.3525V42.4454L47.2211 42.4472L47.2478 42.5587L47.2972 42.5664L47.324 42.7899L47.3467 42.7976V42.8389L47.3693 42.8407V42.9731L47.4183 43.0039L47.5398 43.42L47.5887 43.4259L47.6359 43.6095L47.6794 43.6149L47.7134 43.7722L47.7569 43.7831L47.7868 44.0052L47.8308 44.0165L47.9101 44.7867L47.8852 44.7831L47.8933 45.1294L47.8684 45.1253V45.2808L47.8439 45.2749V45.4073L47.8045 45.4168L47.7836 45.5872L47.7342 45.5777L47.6223 45.924L47.5692 45.9149L47.3897 46.2327L47.3408 46.2418L47.3122 46.24L47.3176 46.303L47.271 46.2966V46.3197L47.1762 46.3692L47.1073 46.4163L47.1132 46.4829L46.9428 46.5355V46.5736L46.9319 46.5695L46.9242 46.5804H46.9201L46.877 46.6017H46.8598L46.8222 46.6321L46.7728 46.6284V46.6452L46.7256 46.6393V46.6624L46.678 46.6516L46.6554 46.6946L46.5158 46.7096L46.4908 46.7477L46.4487 46.7381L46.4283 46.7776L46.305 46.846L46.2388 46.8442V46.8855L45.819 46.9163V46.9575L45.3648 46.9199V46.9426L45.3213 46.9312V46.9539L45.0144 46.8991L44.1663 46.6516V46.6071L43.9769 46.555L43.9542 46.5074L43.9016 46.4961V46.473L43.7819 46.4521V46.4276L43.7117 46.4163V46.3954L43.4796 46.3578L43.4569 46.3089L43.194 46.2558L43.1691 46.2123L43.0041 46.176V46.157L42.9116 46.1402V46.1176L42.8432 46.1022V46.0795L42.7185 46.0627L42.6936 46.011L42.5762 45.987V45.9485L42.4819 45.9281L42.461 45.8823L42.2983 45.8293V45.7858L42.1958 45.769V45.7237L42.1016 45.6878V45.667L42.0313 45.6457V45.6271L41.9139 45.5664V45.5192L41.8382 45.5074V45.4657L41.4633 45.1294L41.418 45.1235V45.0782L41.2929 44.9476L41.2457 44.9422V44.8968L41.2022 44.8869V44.8456L40.748 44.4803L40.6497 44.4136L40.6306 44.3719L40.5853 44.3606L40.5817 44.342L40.5322 44.3325V44.3112L40.4361 44.2305L40.127 44.0184V43.9762L40.0858 43.9676V43.92L40.0096 43.9087V43.8629L39.9566 43.8574V43.8139L39.7018 43.5283L39.6524 43.5184V43.4753L39.1937 43.0016V42.9581L39.1089 42.9395V42.8974L39.0314 42.8597V42.8389L38.9856 42.8294L38.9616 42.7863L38.8913 42.7691L38.8668 42.7219L38.7036 42.6249V42.5814L38.6565 42.5705V42.5284L38.535 42.464V42.4209L38.4879 42.411L38.4824 42.3661L38.2948 42.2219V42.1784L38.244 42.1748L38.1307 41.9776L38.0808 41.9649V41.9246L38.0359 41.9155L37.9829 41.7958L37.9353 41.7868V41.7451L37.89 41.7337V41.673L37.8447 41.6408V41.5973L37.8202 41.5937L37.7708 41.4745L37.7195 41.4667V41.401L37.6719 41.391L37.6026 41.3153L37.5777 41.2659V41.2474L37.5097 41.231V41.1866L37.3166 41.0651V41.0257L37.1271 40.8988V40.8589L37.0876 40.8349H37.1003L37.0913 40.8267L37.574 40.7832L37.5967 40.751Z" fill="#669D25"/>
</svg>
