<svg width="72" height="72" viewBox="0 0 72 72" fill="none" xmlns="http://www.w3.org/2000/svg">
<g clip-path="url(#clip0_507_488)">
<path d="M39.4381 24.5807L41.8681 19.6937C41.8681 19.6937 42.2281 19.2257 39.4381 18.1817C36.6481 17.1377 27.2251 15.1577 21.0601 20.7467C14.8951 26.3357 18.2701 32.8337 21.0601 35.0477C23.8501 37.2617 29.6011 40.2857 29.6011 44.5787C29.5955 45.5846 29.3713 46.5773 28.9439 47.488C28.5165 48.3987 27.8963 49.2055 27.1261 49.8527C30.4921 47.8727 36.7291 44.3447 34.4341 37.4867C32.6341 32.2307 26.8741 31.0967 25.3621 27.5867C23.8501 24.0767 28.8001 18.7757 35.9461 20.8637C39.5461 21.8987 39.4381 24.5807 39.4381 24.5807Z" fill="#0071BB"/>
<path d="M62.3432 42.9856C64.3232 36.8206 66.4922 29.6656 60.0212 29.2606C55.5212 28.9726 50.6432 31.6816 47.7272 33.6346C47.7272 33.6346 52.2812 22.8346 53.1812 20.9716C54.0812 19.1086 53.7572 17.6776 51.1112 17.6776H45.6122C47.4752 18.9826 46.2332 21.7726 46.2332 21.7726L37.5932 41.4016C35.0282 46.3066 31.2482 50.4016 25.2452 51.4726C23.0476 51.6702 20.8325 51.4285 18.7292 50.7616C13.5002 48.7456 11.8802 43.1116 12.1682 39.0076L7.66821 48.9076C7.66821 48.9076 12.0422 55.8286 19.4492 56.3596C25.3622 56.7826 29.5832 55.2976 33.0212 51.9046C31.1402 56.2606 36.0812 56.1256 36.0812 56.1256H40.7342C40.2053 55.8496 39.7949 55.3905 39.5796 54.834C39.3643 54.2776 39.3588 53.6618 39.5642 53.1016C39.7172 52.6786 41.1662 48.8986 41.1662 48.8986C48.1592 34.6696 55.8002 33.5896 56.6462 35.5156C58.2302 39.0256 53.3612 48.5476 52.2002 51.8596C50.2922 56.2426 55.2512 56.0986 55.2512 56.0986H59.8952C59.3904 55.8009 59.0086 55.3324 58.8188 54.7779C58.629 54.2234 58.6437 53.6193 58.8602 53.0746C59.1302 52.2736 62.1002 43.8856 62.3432 42.9856Z" fill="#0071BB"/>
</g>
<defs>
<clipPath id="clip0_507_488">
<rect width="57.6" height="57.6" fill="white" transform="translate(7.19995 7.88568)"/>
</clipPath>
</defs>
</svg>
