<svg width="72" height="72" viewBox="0 0 72 72" fill="none" xmlns="http://www.w3.org/2000/svg">
<path fill-rule="evenodd" clip-rule="evenodd" d="M36.0161 36.2587L46.871 42.6067V42.625L46.7745 42.5696C42.8929 45.6363 39.1882 46.6506 35.9837 46.6514C32.7794 46.6506 29.0747 45.6363 25.1929 42.5696L25.0964 42.625V42.6067L36.0161 36.2587ZM30.5003 14.0088H30.5601L30.5003 27.0351L19.6122 33.1324L19.5968 33.1141C17.3775 17.579 30.5003 14.0088 30.5003 14.0088ZM52.3715 33.1141L52.356 33.1324L41.468 27.0351L41.4083 14.0088H41.468C41.468 14.0088 54.5908 17.579 52.3715 33.1141ZM62.6821 40.1225C59.7662 47.3709 54.8799 49.4206 54.8799 49.4206C69.257 34.8506 60.4763 18.0612 60.4763 18.0612C58.3535 14.298 61.0553 12.6577 61.0553 12.6577C54.8799 14.2015 56.8097 19.3155 56.8097 19.3155C59.9128 26.7064 59.288 32.7106 58.2341 36.4238L56.1991 35.2843L56.2307 35.2366C56.2307 35.2366 61.0522 16.2386 41.3877 9.57572L41.3711 5.99976H37.222V29.5436L56.5202 40.5434C56.1686 41.2576 55.7961 41.9298 55.4077 42.5657L36.0245 31.3372L16.5599 42.5657C16.1716 41.9298 15.799 41.2576 15.4474 40.5434L34.7456 29.5436V5.99976H30.5965L30.5801 9.57572C10.9154 16.2386 15.7368 35.2366 15.7368 35.2366L15.7687 35.2843L13.7337 36.4238C12.6798 32.7106 12.0547 26.7064 15.1579 19.3155C15.1579 19.3155 17.0877 14.2015 10.9123 12.6577C10.9123 12.6577 13.614 14.298 11.4912 18.0612C11.4912 18.0612 2.71053 34.8506 17.0877 49.4206C17.0877 49.4206 12.2014 47.3709 9.28563 40.1225C9.28563 40.1225 7.63158 36.5875 3 37.3594C3 37.3594 4.74784 38.1512 5.77451 41.3545C5.77451 41.3545 9.94737 54.6311 26.0614 56.6575V63.9908H33.9737V53.1838C33.9737 53.1838 25.5799 53.117 19.1717 46.0656L21.1604 44.9048C21.5309 45.2553 27.6238 50.8936 35.9355 51.0415V51.0448C35.9518 51.0444 35.9676 51.0432 35.9838 51.0428C36 51.0432 36.0158 51.0444 36.032 51.0448V51.0415C44.344 50.8936 50.4368 45.2553 50.8073 44.9048L52.7958 46.0656C46.3879 53.117 37.9939 53.1838 37.9939 53.1838V63.9908H45.9062V56.6575C62.0202 54.6311 66.1931 41.3545 66.1931 41.3545C67.2197 38.1512 68.9676 37.3594 68.9676 37.3594C64.336 36.5875 62.6821 40.1225 62.6821 40.1225Z" fill="#AB924B"/>
</svg>
