<svg width="72" height="72" viewBox="0 0 72 72" fill="none" xmlns="http://www.w3.org/2000/svg">
<path fill-rule="evenodd" clip-rule="evenodd" d="M24.6882 42.1711C23.1628 42.1711 21.9221 40.9465 21.9221 39.4412C21.9221 37.9356 23.1628 36.711 24.6882 36.711C26.2136 36.711 27.4543 37.9356 27.4543 39.4412C27.4543 40.9465 26.2136 42.1711 24.6882 42.1711ZM25.1519 34.0814C24.0615 34.0814 23.0524 34.4628 22.3107 35.1555L22.0553 35.3936V29.9996H19.1504V39.2179C19.1504 42.6572 21.2336 44.7942 24.5872 44.7942C27.8663 44.7942 30.2462 42.5457 30.2462 39.4478C30.2462 36.3383 28.1036 34.0814 25.1519 34.0814ZM14.5118 29.9998L8.87935 36.5477V29.9998H5.99951V44.3833H8.87935V37.8929L14.6262 44.3833H18.3283L11.97 37.1916L18.1562 29.9998H14.5118ZM62.7626 34.3981H65.9999L61.6936 39.3906L65.9999 44.3832H62.7626L59.0431 40.0712V44.3832H56.1369V29.9996H59.0431V38.7101L62.7626 34.3981ZM50.6868 34.1094C48.9441 34.1094 47.8686 34.9293 47.355 35.5038V34.4492H44.6298V44.3833H47.4532L47.4529 38.9733C47.4529 37.621 48.3898 36.6764 49.5613 36.6764C50.7332 36.6764 51.6698 37.621 51.6698 38.9733V44.3833H54.4929V38.1213C54.4929 35.7968 52.8167 34.1094 50.6868 34.1094ZM34.3627 39.4554C34.3627 40.9568 35.5878 42.1781 37.094 42.1781C38.6002 42.1781 39.8253 40.9568 39.8253 39.4554C39.8253 37.9538 38.6002 36.7324 37.094 36.7324C35.5878 36.7324 34.3627 37.9538 34.3627 39.4554ZM31.4792 39.4617C31.4792 36.3603 33.8042 34.1094 37.0072 34.1094C40.2335 34.1094 42.5751 36.3603 42.5751 39.4617V44.4596H39.9656V43.0406L39.803 43.2647C39.7919 43.2799 38.671 44.7944 36.5732 44.7944C33.6215 44.7944 31.4792 42.5515 31.4792 39.4617Z" fill="#0F0060"/>
</svg>
