<svg width="72" height="72" viewBox="0 0 72 72" fill="none" xmlns="http://www.w3.org/2000/svg">
<path fill-rule="evenodd" clip-rule="evenodd" d="M55.129 9.25976L65.2599 19.355C65.2599 19.355 65.9459 20.2394 65.8186 20.8689C65.6771 21.5481 65.0827 22.2908 65.0827 22.2908L60.1447 27.1865L43.3995 10.3636C36.29 2.87862 30.7364 5.86401 30.7364 5.86401C30.7364 5.86401 43.8099 -1.64904 55.129 9.25976ZM39.4827 10.1808L58.3645 29.0271L51.2047 36.2361C51.2047 36.2361 50.2923 36.8725 49.6628 36.7029C49.0117 36.5261 48.2833 35.8894 48.2833 35.8894L34.6863 22.2851C34.4387 22.0376 34.0495 22.0376 33.8163 22.2851L18.967 37.1204C18.7331 37.3608 18.7331 37.7428 18.967 37.9904L33.8163 52.8325C34.0495 53.0661 34.4387 53.0661 34.6863 52.8325L49.4296 38.0684C49.4296 38.0684 49.7548 37.8136 49.9808 37.7216C50.3491 37.5588 51.5022 37.5588 51.5022 37.5588H63.6066C63.6066 37.5588 64.6041 37.4316 65.1061 37.7428C65.5165 38.0044 65.5804 38.5776 65.5732 38.7756C64.9293 55.5067 51.1763 68.9766 34.3043 68.9766C17.0215 68.9766 2.99976 54.9548 2.99976 37.672C2.99976 22.1295 14.3329 9.23287 29.1823 6.77788C30.8446 6.50909 35.5634 6.26869 39.4827 10.1808Z" fill="#005BAC"/>
</svg>
